<?xml version="1.0" encoding="UTF-8"?>
<svg xmlns="http://www.w3.org/2000/svg" id="a" width="865.76" height="682.89" viewBox="0 0 865.76 682.89">
  <rect x="165.86" y="528.84" width="322.14" height="81.2" fill="#fff" stroke="#002346" stroke-miterlimit="10"></rect>
  <rect x="168.58" y="459.55" width="309.17" height="66.28" fill="#9597df" stroke="#002346" stroke-miterlimit="10"></rect>
  <rect x="438.84" y="459.55" width="18.64" height="66.28" fill="#5f7dc4" stroke="#002346" stroke-miterlimit="10"></rect>
  <rect x="165.86" y="416.72" width="320.94" height="39.78" fill="#e6e7e8" stroke="#002346" stroke-miterlimit="10"></rect>
  <rect x="162.54" y="606.72" width="328.54" height="6.64" rx="3.32" ry="3.32" fill="#5f7dc4" stroke="#002346" stroke-miterlimit="10"></rect>
  <rect x="162.54" y="525.51" width="328.54" height="6.64" rx="3.32" ry="3.32" fill="#5f7dc4" stroke="#002346" stroke-miterlimit="10"></rect>
  <rect x="161.32" y="453.45" width="329.76" height="6.1" rx="3.04" ry="3.04" fill="#fff" stroke="#002346" stroke-miterlimit="10"></rect>
  <rect x="162.06" y="413.67" width="329.76" height="6.1" rx="3.04" ry="3.04" fill="#fff" stroke="#002346" stroke-miterlimit="10"></rect>
  <path d="M384.45,231.01c2.63,.06,5.25-.44,7.67-1.47-2.45,1.13-5.11,1.75-7.81,1.8l.14-.33Z" fill="#fcbaeb" stroke="#351d66" stroke-miterlimit="10"></path>
  <path d="M402.63,221.57c.25-.28,.49-.59,.74-.88l-.74,.88Z" fill="#fcbaeb" stroke="#351d66" stroke-miterlimit="10"></path>
  <path d="M398.01,244.2s21.04,3.93,22.1,20.69l2.85,65.97c5.11-.39,10.03-2.11,14.27-4.99,0,0,.35,8.56,7.13,11.41,0,0-10.7,13.91-22.12,14.99l-19.61-10.34-2.14-18.19,7.14-54.93-9.63-24.61Z" fill="#f1b2c0" stroke="#002346" stroke-miterlimit="10"></path>
  <path id="b" d="M335.59,240.64s-16.76,0-21.75,11.41c0,0-3.92,24.97,14.99,74.89l14.26,43.87s50.93-13.1,81.67-16.4c-4.95-4.91-10.61-9.05-16.8-12.26-1.59-.79-2.39-2.6-1.9-4.31,2.69-9.15,4.47-18.55,5.32-28.05,.14-1.92,1.08-3.69,2.58-4.89,4.53-3.7,13.46-13.24,5.81-27.16,0,0-7.36-11.44-9.69-19.32-1.21-4.13-3.44-7.89-6.47-10.93-1.77-1.75-3.72-3.15-5.59-3.27l-62.42-3.58Z" fill="#9597df" stroke="#002346" stroke-miterlimit="10"></path>
  <path d="M313.83,252.05s10.34-17.11,20.69,.71c0,0,11.41,22.12-1.08,39.61l-59.19,105.93-8.21,13.19s-2.85,4.29-9.63,3.58l-38.87-.72c-2.5,.35-4.82-1.35-5.23-3.84-.12-.75,.39-1.45,1.14-1.57,.05,0,.1-.01,.14-.02l16.52-.91c1.12-.06,2.21-.32,3.24-.76l19.38-8.3c2.59-1.11,4.62-3.2,5.66-5.82l55.44-141.09Z" fill="#f1b2c0" stroke="#002346" stroke-miterlimit="10"></path>
  <path d="M428.18,412.74s26.84,10.93,39.14,22.24c2.66,2.44,3.61,6.23,2.42,9.64-2.13,6.2-4.28,19.04,2.39,39.49l12.89,33.05s5.29-6.94,26.1-7.59l-6.61-71.71-21.81-61.12-54.52,36Z" fill="#5f7dc4" stroke="#002346" stroke-miterlimit="10"></path>
  <path d="M485.02,517.16l11.66,32.39c1.21,6.71,3.66,13.13,7.22,18.94,0,0,7.22,11.51,12.88,16,0,0,6.63-2.74,11.91-1.37,0,0-8.25-20.12-12.91-30.8-.76-1.72-1.23-3.56-1.39-5.43l-3.26-37.35s-15.91-1.17-26.1,7.62Z" fill="#f1b2c0" stroke="#002346" stroke-miterlimit="10"></path>
  <path d="M485.44,264.91l25.45-8.12c.07-.02,.14,.02,.15,.08,.01,.04,0,.08-.02,.11l-38.32,49.66-21.5,6.53h0l34.24-48.27Z" fill="#5f7dc4" stroke="#002346" stroke-miterlimit="10"></path>
  <polygon points="405.88 298.98 402.89 298.18 443.64 248.38 485.44 264.91 445 251.43 405.88 298.98" fill="#e6e7e8" stroke="#002346" stroke-miterlimit="10"></polygon>
  <path d="M496.01,548.06s-10.19,12.64-4.66,20.85c2.14,2.41,4.91,4.17,7.99,5.1,0,0,6.87,4,11.53,13.75,0,0,2.66,6.43,11.76,6.43l15.18-.83c.63-.03,1.1-.59,1.02-1.22-.26-1.94-1.86-5.94-10.18-9.03,0,0-4.22-1.69-11.91,1.37,0,0-17.66-16.35-20.1-34.94l-.62-1.49Z" fill="#9597df" stroke="#002346" stroke-miterlimit="10"></path>
  <path id="c" d="M365.2,194.63l-13.93,40.42c-.43,1.26-1.48,2.22-2.77,2.52l-12.9,3.07s32.46,47.43,54.93,44.93c0,0,19.98-1.43,7.49-41.37l-16.29-5.55c-.24-.08-.38-.34-.3-.59,0-.01,0-.03,.01-.04l3.01-7.03-18.19-35.66-1.06-.71Z" fill="#f1b2c0" stroke="#002346" stroke-miterlimit="10"></path>
  <path d="M343.08,370.81s-3.14,53.5,42.47,52.18c0,0,40.94,4.53,94.8-34.7,.54-.39,1.29-.26,1.67,.27,.18,.25,.26,.56,.22,.86-1.32,7.02-2.26,24.9,15.66,44.14l17.52,21.17s4.29-11.24,22.14-13.58l-32.39-86.71c-.82-2.19-2.82-3.73-5.15-3.95-9.13-.86-34.53-2.17-75.27,3.9,0,.02-28.96,2.92-81.67,16.42Z" fill="#5f7dc4" stroke="#002346" stroke-miterlimit="10"></path>
  <path d="M515.42,454.72l19.92,29.09c.47,.68,.78,1.45,.92,2.26,.17,1.13,.88,3.03,3.4,5.66,0,0,6.73,12.38,27.85,22.16,2.67-2.66,6.2-4.27,9.96-4.53,0,0-18.72-21.5-23.69-30.38l-16.16-37.85s-15.85,1.36-22.2,13.58Z" fill="#f1b2c0" stroke="#002346" stroke-miterlimit="10"></path>
  <path d="M536.28,485.52c0-.09-.09-.11-.14,0-.97,2.18-6.37,15.28,1.13,21.36,0,0,.78,.77,9.76,2.73,0,0,5.08-.4,16.98,9.76,0,0,2.55,4.88,12.3,2.54l13.13-5.47c.57-.24,.83-.9,.56-1.46-.84-1.79-3.61-5.23-12.6-5.62-3.74,.28-7.27,1.89-9.94,4.53,0,0-18.96-8.26-27.7-22.04-1.78-1.7-3-3.9-3.5-6.32Z" fill="#9597df" stroke="#002346" stroke-miterlimit="10"></path>
  <path d="M445,251.43l40.44,13.48-34.1,48.08c-.1,.13-.26,.18-.42,.15l-46.54-12.29,40.62-49.42Z" fill="#5f7dc4" stroke="#002346" stroke-miterlimit="10"></path>
  <path d="M437.24,325.87c.59-3.51,1.99-6.84,4.09-9.72,0,0-8.55-12.45-5.42-17.22,.32-.46,.95-.57,1.4-.25,.1,.07,.18,.15,.25,.25l9.44,13.17,.94-.48s-10.01-10.75-6.89-16.58c.53-.85,1.65-1.12,2.51-.59,.19,.12,.36,.28,.5,.46l10.19,13.23c.1,.12,.28,.14,.4,.04,.04-.03,.07-.08,.09-.12l2.57-7.19c.49-1.37,.56-2.86,.2-4.27-.69-2.78-1.51-7.67,.71-9.73,.39-.38,1.02-.36,1.39,.03,.11,.12,.19,.26,.24,.41l2.87,10.25c.38,1.31,.38,2.7,0,4.01l-3.28,11.13c-.26,.85-.64,1.66-1.13,2.4l-13.96,22.14s-6.95-1.9-7.11-11.39Z" fill="#f1b2c0" stroke="#002346" stroke-miterlimit="10"></path>
  <circle cx="221.75" cy="85.46" r="49.3" fill="#5f7dc4" stroke="#002346" stroke-miterlimit="10"></circle>
  <g>
    <path d="M245.06,97.96c4.93-1.57,10.19-1.91,15.02-3.85,4.05-1.8,7.76-4.3,10.96-7.38v-1.27c0-6.43-1.25-12.8-3.7-18.74-.51,1.84-.92,3.75-1.41,5.58-2.26,8.58-7.19,17.19-15.39,20.55-6.25,2.56-13.28,1.69-20.03,1.69-8.13,0-16.39,1.39-23.64,5.07s-13.46,9.79-16.28,17.42c-.64,1.75-1.12,3.56-1.44,5.4,.75,.64,1.51,1.26,2.26,1.87,2.52-5.13,6.21-9.6,10.77-13.04,8-6.07,18.11-8.95,28.1-9.64-11.76,6.41-19.46,18.34-20.45,31.69,1.06,.26,2.14,.48,3.23,.68,.41-.91,.84-1.79,1.27-2.66,3.4-6.98,7.13-13.91,12.07-19.91,4.93-6,11.26-11.09,18.68-13.46Z" fill="#fff" stroke="#002346" stroke-miterlimit="10"></path>
    <path d="M270.5,92.9c-5.25,4.84-11.66,8.24-17.61,12.2s-11.75,8.87-14.58,15.47c-1.55,3.83-2.29,7.94-2.18,12.07,.75-.23,1.51-.48,2.26-.75,2.1-6.03,5.95-11.31,11.05-15.16,4.47-3.32,9.63-5.6,15.09-6.7,3.04-5.29,5.07-11.1,5.98-17.14Z" fill="#fff" stroke="#002346" stroke-miterlimit="10"></path>
    <path d="M176.11,104.08c2.58-10.27,6.62-20.84,15.05-27.16,5.09-3.84,11.39-5.81,17.7-6.79s12.71-.96,19.08-1.29c2.9-.05,5.79-.45,8.59-1.2,3.31-1.08,6.38-2.78,9.05-5,4.4-3.37,7.88-7.8,10.12-12.88-5.69-5.39-12.59-9.35-20.12-11.54-1.49,3.56-3.67,6.79-6.43,9.48-2.51,2.31-5.3,4.3-8.31,5.91-12.98,7.35-28.3,11.75-37.93,23.15-4.57,5.66-7.75,12.31-9.29,19.42,.6,2.7,1.43,5.35,2.48,7.91Z" fill="#fff" stroke="#002346" stroke-miterlimit="10"></path>
    <path d="M246.77,70.9c-1.34,1.31-2.86,2.41-4.53,3.27-2.23,.88-4.6,1.41-6.99,1.55-4.36,.49-8.73,1.03-13.03,1.9-5.69,.96-11.15,3.02-16.05,6.07-4.79,3.2-8.69,8.02-9.82,13.66,1-3.58,4.09-6.15,7.18-8.21,4.28-2.86,9.05-5.27,14.23-5.5,6.79-.29,13.11,3.18,19.83,3.76,8.59,.62,16.85-3.45,21.58-10.65,2.63-4.11,4.17-9.22,6.79-13.17-2.11-4.24-4.81-8.16-8.04-11.62-.62,4.14-2.17,8.09-4.53,11.56-1.89,2.73-4.12,5.21-6.62,7.39Z" fill="#fff" stroke="#002346" stroke-miterlimit="10"></path>
  </g>
  <circle cx="622.67" cy="130.22" r="37.89" transform="translate(-13.44 136.86) rotate(-12.41)" fill="#fff" stroke="#002346" stroke-miterlimit="10"></circle>
  <path d="M646.83,100.97c1.6,1.32,3.09,2.78,4.45,4.36,34.81-18.45,60.64-29.77,62.28-26.79,2.18,3.84-36.74,30.06-86.95,58.58-50.21,28.52-92.66,48.52-94.85,44.68-1.69-2.97,21.22-19.33,54.9-39.78-.65-1.98-1.13-4-1.45-6.06-53.47,32.12-90.9,59.65-87.69,65.28,3.79,6.67,62.88-19.75,131.99-59.01,69.11-39.26,122.07-76.49,118.29-83.16-3.2-5.64-46.02,12.42-100.98,41.89Z" fill="#e6e7e8" stroke="#002346" stroke-miterlimit="10"></path>
  <circle cx="176.86" cy="305.22" r="59.1" fill="#9597df" stroke="#002346" stroke-miterlimit="10"></circle>
  <g>
    <path d="M178.64,332.67c-4.01,3.87-6.79,8.75-10.28,13.14-4.19,5.35-9.23,9.98-14.93,13.68,4.18,1.81,8.56,3.12,13.04,3.92,3.14-5.84,4.99-12.34,8.12-18.2,3.46-6.52,9.25-12.6,16.6-13.21,8.06-.69,15.01,5.22,20.93,10.73,1.86,1.73,3.71,3.49,5.5,5.3,4.2-4,7.8-8.59,10.66-13.64-.83-.7-1.65-1.38-2.48-2.03-13.55-10.5-34.84-11.6-47.16,.31Z" fill="#fff" stroke="#002346" stroke-miterlimit="10"></path>
    <path d="M135.99,269.28c11.32,1.13,21.84,5.81,32.3,10.19s21.35,8.56,32.68,8.49c10.29-.17,20.21-3.8,28.18-10.31-1.87-3.53-4.09-6.86-6.62-9.95-3.13,2.6-6.74,4.57-10.62,5.81-11.14,3.51-23.23,.78-34.31-2.89-11.08-3.67-22.12-8.31-33.77-8.66-2.58-.07-5.16,.09-7.72,.45-2.18,2.07-4.2,4.3-6.03,6.69,1.97-.08,3.95-.02,5.91,.18Z" fill="#fff" stroke="#002346" stroke-miterlimit="10"></path>
    <path d="M205.6,321.73c8.48,1.58,16.83,5.6,25.13,7.87,1.97-4.37,3.41-8.97,4.28-13.68h0c-10.59,1.58-21.37-.16-32.08-.45-17.89-.47-35.66,3.11-51.96,10.49-1.56,.71-3.4,2.21-2.63,3.74,.65,1.28,2.48,1.13,3.87,.81,17.68-4.33,35.49-12.1,53.39-8.77Z" fill="#fff" stroke="#002346" stroke-miterlimit="10"></path>
    <path d="M155.2,250.21c1.61,.71,3.18,1.49,4.72,2.32,5.53,2.97,10.73,6.61,16.52,9.05,10.87,4.53,23.01,4.53,34.78,4.36,2.73,.13,5.45-.26,8.04-1.13l.52-.23c-16.59-17.51-42.14-23.19-64.58-14.37h0Z" fill="#fff" stroke="#002346" stroke-miterlimit="10"></path>
    <path d="M231.84,283.45c-3.05,3.31-6.66,6.05-10.66,8.12-10.7,5.51-23.39,6.21-35.19,3.87-11.79-2.34-22.84-7.54-33.37-13.36-6.94-3.84-15.14-8.08-22.36-4.81-4.29,1.95-7.15,6.3-8.18,10.9-.85,4.65-.61,9.44,.7,13.98,1.68,6.71,5,13.67,11.32,16.62,8.76,4.11,18.73-1.19,27.67-4.9,13.64-5.66,28.49-7.72,43.16-6,9.05,1.08,18.53,3.59,27.16,.68,1.33-.45,2.62-1.02,3.86-1.69v-1.64c.01-7.45-1.38-14.83-4.11-21.77Zm-80.6,24.31c-2.5,1.39-5.31,2.13-8.17,2.16-2.78,.16-5.84-.07-7.92-1.96-.88-.87-1.57-1.91-2.03-3.07-1.92-4.53-2.34-12.57,1.73-16.13,.65-.56,1.4-.99,2.21-1.29,4.14-1.53,9.7,.49,12.78,2.98,1.72,1.58,3.07,3.51,3.97,5.66,.81,1.42,1.33,2.98,1.51,4.61,0,2.91-1.56,5.59-4.07,7.04Z" fill="#fff" stroke="#002346" stroke-miterlimit="10"></path>
  </g>
  <rect x="366.91" y="165.02" width="44.99" height="67.23" rx="22.5" ry="22.5" transform="translate(134.17 -156.25) rotate(27.25)" fill="#f1b2c0" stroke="#002346" stroke-miterlimit="10"></rect>
  <g>
    <ellipse cx="365.32" cy="148.75" rx="14.21" ry="14.66" transform="translate(201.36 507.51) rotate(-87.59)" fill="#002346" stroke="#002346" stroke-miterlimit="10"></ellipse>
    <ellipse cx="373.56" cy="157.8" rx="10.93" ry="11.28" transform="translate(200.22 524.41) rotate(-87.59)" fill="#9597df" stroke="#002346" stroke-miterlimit="10"></ellipse>
    <path d="M407.7,177.61c-3.26,2.3-10.19,5.71-22.91,6.12,0,0,.29,7.78-9.96,14.18-2.98,1.86-5.22,4.68-6.14,7.99-1.47,5.26-1.77,13.42,5.09,22.56,0,0-6.48-.03-15.28-3.29,0,0-5.81,5.18-15.03,4.35-3.79-.34-7.17-2.72-8.51-6.18-1.78-4.61-2.27-12.74,3.89-26.4,0,0,15.43-48.39,45.13-47.14,0,0,13.78-1.49,25.2,5.05,11.51,6.59,12.39,27.88,7.49,36.49l-1.79-4.32c-1.45-3.5-1.73-4.19-2.47-7.6-.07-.34-.21-.67-.4-.97h0c-.94-1.45-2.88-1.84-4.3-.84Z" fill="#002346" stroke="#002346" stroke-miterlimit="10"></path>
  </g>
  <ellipse cx="364.3" cy="189.64" rx="6.24" ry="8.92" fill="#f1b2c0" stroke="#002346" stroke-miterlimit="10"></ellipse>
  <g>
    <path d="M182.91,548c.26,2.92,.63,6.22,1.19,9.57,0,0,11.84-38.73,50.73-33.73l-7.64-16.83-6.32-6.32c-12.69,6.59-24.96,4.6-33.35,21.62-3.92,7.94-5.38,16.87-4.61,25.69Z" fill="#7cd295" stroke="#002346" stroke-miterlimit="10"></path>
    <path d="M292.58,510.92c-35.1,.04-40.35-51.69-4.89-94.76,.12-.14,.34-.04,.32,.14-1.4,14.68,41.7,67.29,13.45,91.37-2.48,2.12-5.63,3.24-8.89,3.25Z" fill="#7cd295" stroke="#002346" stroke-miterlimit="10"></path>
    <path d="M290.45,491.59c-22.15-13.15-17.15-52.56,48.47-75.81,.12-.04,.25,.07,.2,.19-.74,2.14-5.09,16.09-7.38,55.43-.61,10.49-15.59,35.45-41.3,20.19Z" fill="#7cd295" stroke="#002346" stroke-miterlimit="10"></path>
    <path d="M313.37,577.97c.99,7.75-51.56,7.75-50.56,0-.99-7.75,51.56-7.75,50.56,0Z" fill="#002346" stroke="#002346" stroke-miterlimit="10"></path>
    <path d="M315.45,646.63c-2.27-.34-60.14,.99-60.28-1.07-11.4-5.41-11.89-23.06-11.89-23.06-1.72-23.56,19.53-36.2,19.53-36.2v-8.33c-.99,7.75,51.56,7.75,50.56,0v8.91c27.83,18.26,22.18,57.9,2.08,59.75Z" fill="#9597df" stroke="#002346" stroke-miterlimit="10"></path>
    <path d="M315.09,597.22c.07,4.47-6.96,4.47-6.89,0-.07-4.47,6.96-4.47,6.89,0Z" fill="#fff" stroke="#002346" stroke-miterlimit="10"></path>
    <path d="M325.44,607.56c.07,4.47-6.96,4.47-6.89,0-.07-4.47,6.96-4.47,6.89,0Z" fill="#fff" stroke="#002346" stroke-miterlimit="10"></path>
    <path d="M327.16,624.22c.07,4.47-6.96,4.47-6.89,0-.07-4.47,6.96-4.47,6.89,0Z" fill="#fff" stroke="#002346" stroke-miterlimit="10"></path>
    <path d="M317.97,636.86c.07,4.47-6.96,4.47-6.89,0-.07-4.47,6.96-4.47,6.89,0Z" fill="#fff" stroke="#002346" stroke-miterlimit="10"></path>
    <path d="M289.81,640.31c.07,4.47-6.96,4.47-6.89,0-.07-4.47,6.96-4.47,6.89,0Z" fill="#fff" stroke="#002346" stroke-miterlimit="10"></path>
    <path d="M267.98,636.86c.07,4.47-6.96,4.47-6.89,0-.07-4.47,6.96-4.47,6.89,0Z" fill="#fff" stroke="#002346" stroke-miterlimit="10"></path>
    <path d="M255.92,627.1c.07,4.47-6.96,4.47-6.89,0-.07-4.47,6.96-4.47,6.89,0Z" fill="#fff" stroke="#002346" stroke-miterlimit="10"></path>
    <path d="M257.64,607.56c.07,4.47-6.96,4.47-6.89,0-.07-4.47,6.96-4.47,6.89,0Z" fill="#fff" stroke="#002346" stroke-miterlimit="10"></path>
    <path d="M270.28,596.07c.07,4.47-6.96,4.47-6.89,0-.07-4.47,6.96-4.47,6.89,0Z" fill="#fff" stroke="#002346" stroke-miterlimit="10"></path>
    <path d="M281.77,606.41c.07,4.47-6.96,4.47-6.89,0-.07-4.47,6.96-4.47,6.89,0Z" fill="#fff" stroke="#002346" stroke-miterlimit="10"></path>
    <path d="M268.56,615.61c.07,4.47-6.96,4.47-6.89,0-.07-4.47,6.96-4.47,6.89,0Z" fill="#fff" stroke="#002346" stroke-miterlimit="10"></path>
    <path d="M280.05,627.1c.07,4.47-6.96,4.47-6.89,0-.07-4.47,6.96-4.47,6.89,0Z" fill="#fff" stroke="#002346" stroke-miterlimit="10"></path>
    <path d="M292.69,617.33c.07,4.47-6.96,4.47-6.89,0-.07-4.47,6.96-4.47,6.89,0Z" fill="#fff" stroke="#002346" stroke-miterlimit="10"></path>
    <path d="M294.99,597.79c.07,4.47-6.96,4.47-6.89,0-.07-4.47,6.96-4.47,6.89,0Z" fill="#fff" stroke="#002346" stroke-miterlimit="10"></path>
    <path d="M305.33,609.86c.07,4.47-6.96,4.47-6.89,0-.07-4.47,6.96-4.47,6.89,0Z" fill="#fff" stroke="#002346" stroke-miterlimit="10"></path>
    <path d="M313.37,617.9c.07,4.47-6.96,4.47-6.89,0-.07-4.47,6.96-4.47,6.89,0Z" fill="#fff" stroke="#002346" stroke-miterlimit="10"></path>
    <path d="M301.88,629.39c.07,4.47-6.96,4.47-6.89,0-.07-4.47,6.96-4.47,6.89,0Z" fill="#fff" stroke="#002346" stroke-miterlimit="10"></path>
    <path d="M344.4,539.19c-18.94-15.44-45.89,5.75-18.96,32.18,0,0,13.79,12.64,19.53,25.85,0,0,26.43-18.96,27-44.81,0,0,0-26.43-27.58-13.21Z" fill="#7cd295" stroke="#002346" stroke-miterlimit="10"></path>
    <path d="M183.55,535.99c29.77-52.48,42.49,1.49,87.3-5.99,.68-60.34-86.64-57.8-87.3,5.99Z" fill="#7cd295" stroke="#002346" stroke-miterlimit="10"></path>
    <path d="M262.81,586.3s21.21,10.89,50.56,.57" fill="none" stroke="#002346" stroke-linecap="round" stroke-linejoin="round"></path>
    <path d="M293.41,558.46s12.48-52.43,44.26-27c4.47,3.58,7.27,8.84,8.63,14.4,2.1,8.61,4.79,24.29,1.42,39.44" fill="none" stroke="#002346" stroke-linecap="round" stroke-linejoin="round"></path>
    <path d="M333.98,420.52s-58.67,42.44-38.7,157.3" fill="none" stroke="#002346" stroke-linecap="round" stroke-linejoin="round"></path>
    <path d="M206.65,501.66s77.4-1.25,79.9,74.9" fill="none" stroke="#002346" stroke-linecap="round" stroke-linejoin="round"></path>
  </g>
</svg>
