<?xml version="1.0" encoding="UTF-8"?>
<svg xmlns="http://www.w3.org/2000/svg" id="a" width="865.76" height="682.89" viewBox="0 0 865.76 682.89">
  <g>
    <rect x="490.67" y="610.88" width="14" height="25" fill="#e6e7e8" stroke="#002346" stroke-miterlimit="10"></rect>
    <rect x="696.67" y="610.88" width="14" height="25" fill="#e6e7e8" stroke="#002346" stroke-miterlimit="10"></rect>
    <rect x="468.69" y="605.38" width="262" height="12" fill="#fff" stroke="#002346" stroke-miterlimit="10"></rect>
    <path d="M556.79,338.42H133.27l.08-262c0-9.65,7.83-17.48,17.48-17.48h388.56c9.65,0,17.47,7.81,17.48,17.46v.02l-.08,262Z" fill="#fff" stroke="#002346" stroke-miterlimit="10"></path>
    <path id="b" d="M96.38,338.56h496.12v16.78c0,1.87-1.51,3.38-3.38,3.38H99.76c-1.87,0-3.38-1.51-3.38-3.38h0v-16.78h0Z" fill="#fff" stroke="#002346" stroke-miterlimit="10"></path>
    <rect x="154.85" y="77.98" width="379.64" height="242.84" fill="#e6e7e8" stroke="#002346" stroke-miterlimit="10"></rect>
    <path d="M172.32,49.88h344c3.03,0,5.48,2.45,5.48,5.48V250.13c0,3.03-2.45,5.48-5.48,5.48H172.33c-2.33,0-4.21-1.88-4.21-4.21h0V54.04c.03-2.31,1.9-4.16,4.21-4.16Z" fill="#747ddc" stroke="#002346" stroke-miterlimit="10"></path>
    <path d="M173.41,241.29l4.13,10.28s102.86-37.59,166.6-1.27c0,0-28.28-50.71-170.73-9.01Z" fill="#e6e7e8" stroke="#002346" stroke-miterlimit="10"></path>
    <path d="M179.19,251.57l331.55-1.14c.18,0,.33-.15,.33-.33,0-.11-.06-.22-.16-.28-8.3-4.8-67.71-35.7-166.76,.48,0,0-29.69-21.32-92.41-14.85,0,0-24.83,.27-72.62,15.61-.14,.04-.22,.18-.18,.32,.03,.11,.13,.19,.25,.19Z" fill="#e6e7e8" stroke="#002346" stroke-miterlimit="10"></path>
    <rect x="287.76" y="275.54" width="105.57" height="21.11" rx="5.59" ry="5.59" fill="#93c3fb" stroke="#002346" stroke-miterlimit="10"></rect>
    <path d="M511.91,250.43l5.26-10.52-.81-183.3c-104.8-44.91-172.21-7.26-172.21-7.26-56.15-37.12-171.26,6.89-171.26,6.89l.53,185.05s126.72-41.36,170.73,9c0,0,88.05-38.17,167.76,.14Z" fill="#fff" stroke="#002346" stroke-miterlimit="10"></path>
    <g>
      <path d="M184.71,66.71s81.51-27.67,142.45-4.35" fill="none" stroke="#002346" stroke-linecap="round" stroke-linejoin="round"></path>
      <path d="M184.71,83.99s81.51-27.7,142.45-4.36" fill="none" stroke="#002346" stroke-linecap="round" stroke-linejoin="round"></path>
      <path d="M184.71,101.26s81.51-27.7,142.45-4.35" fill="none" stroke="#002346" stroke-linecap="round" stroke-linejoin="round"></path>
      <path d="M184.71,118.54s81.51-27.7,142.45-4.36" fill="none" stroke="#002346" stroke-linecap="round" stroke-linejoin="round"></path>
      <path d="M184.71,135.82s81.51-27.7,142.45-4.36" fill="none" stroke="#002346" stroke-linecap="round" stroke-linejoin="round"></path>
      <path d="M184.71,153.1s81.51-27.7,142.45-4.35" fill="none" stroke="#002346" stroke-linecap="round" stroke-linejoin="round"></path>
      <path d="M186.69,170.38s81.51-27.7,142.45-4.35" fill="none" stroke="#002346" stroke-linecap="round" stroke-linejoin="round"></path>
      <path d="M186.69,187.65s81.51-27.7,142.45-4.36" fill="none" stroke="#002346" stroke-linecap="round" stroke-linejoin="round"></path>
      <path d="M186.69,204.93s81.51-27.7,142.45-4.36" fill="none" stroke="#002346" stroke-linecap="round" stroke-linejoin="round"></path>
      <path d="M186.69,222.21s79.98-30.33,141.98-2.33" fill="none" stroke="#002346" stroke-linecap="round" stroke-linejoin="round"></path>
    </g>
    <g>
      <path d="M354.71,67.71s81.51-27.67,142.45-4.35" fill="none" stroke="#002346" stroke-linecap="round" stroke-linejoin="round"></path>
      <path d="M354.71,84.99s81.51-27.7,142.45-4.36" fill="none" stroke="#002346" stroke-linecap="round" stroke-linejoin="round"></path>
      <path d="M354.71,102.26s81.51-27.7,142.45-4.35" fill="none" stroke="#002346" stroke-linecap="round" stroke-linejoin="round"></path>
      <path d="M354.71,119.54s81.51-27.7,142.45-4.36" fill="none" stroke="#002346" stroke-linecap="round" stroke-linejoin="round"></path>
      <path d="M354.71,136.82s81.51-27.7,142.45-4.36" fill="none" stroke="#002346" stroke-linecap="round" stroke-linejoin="round"></path>
      <path d="M354.71,154.1s81.51-27.7,142.45-4.35" fill="none" stroke="#002346" stroke-linecap="round" stroke-linejoin="round"></path>
      <path d="M356.69,171.38s81.51-27.7,142.45-4.35" fill="none" stroke="#002346" stroke-linecap="round" stroke-linejoin="round"></path>
      <path d="M356.69,188.65s81.51-27.7,142.45-4.36" fill="none" stroke="#002346" stroke-linecap="round" stroke-linejoin="round"></path>
      <path d="M356.69,205.93s81.51-27.7,142.45-4.36" fill="none" stroke="#002346" stroke-linecap="round" stroke-linejoin="round"></path>
      <path d="M356.69,223.21s79.98-30.33,141.98-2.33" fill="none" stroke="#002346" stroke-linecap="round" stroke-linejoin="round"></path>
    </g>
    <path d="M366.1,150.11l-.57-108.92c6.87-2.03,13.89-3.51,21-4.4l-.68,114.1-9.71-11.06-10.04,10.28Z" fill="#93c3fb" stroke="#002346" stroke-miterlimit="10"></path>
    <path d="M526.72,294.69h147c23.59,0,42.71,19.12,42.71,42.71h0v159.64h-232.44v-159.63c0-23.59,19.11-42.71,42.7-42.72h.03Z" fill="#fff" stroke="#002346" stroke-miterlimit="10"></path>
    <path d="M561.59,317.62s4.06-3.27,19.72-3.87c0,0,3-7.13,3.07-12.37,0,0-7.71-3.31-13.68-15.38,0,0,2.18,8.53-4.18,14.47,0,0-5.58,5.47-4.93,17.15Z" fill="#002346" stroke="#002346" stroke-miterlimit="10"></path>
    <path d="M611.44,313.34c-2.72-3.93-4.04-8.67-3.73-13.44,0,0,12.61-9.65,13.7-21.59,.42,2.78,1.25,5.47,2.47,8,2.66,5.87,6.5,11.14,11.28,15.47,3.8,3.53,8.11,10.29,2.45,20.37-8.14-4.45-17-7.43-26.17-8.81Z" fill="#002346" stroke="#002346" stroke-miterlimit="10"></path>
    <polygon points="689.66 498.99 690.64 485.5 510.46 485.65 510.46 498.24 689.66 498.99" fill="#e6e7e8" stroke="#002346" stroke-miterlimit="10"></polygon>
    <path d="M769.38,469.04c-1.1-22.06-19.89-39.05-41.95-37.95-20.52,1.03-36.92,17.43-37.95,37.95,0,2.15,.17,4.3,.51,6.42v23.68h-179.99v-30.1c-.1-22.09-18.09-39.92-40.18-39.82-22.09,.1-39.92,18.09-39.82,40.18,.06,12.83,6.27,24.86,16.7,32.34h0l5.3,88.75c.53,8.42,7.5,14.98,15.93,15h264.34c9.14,0,16.65-7.22,17-16.35l3.5-86.9h0c10.42-7.19,16.61-19.58,16.61-33.19Z" fill="#e6e7e8" stroke="#002346" stroke-miterlimit="10"></path>
    <circle cx="468.7" cy="469.28" r="19.98" fill="#fff" stroke="#002346" stroke-miterlimit="10"></circle>
    <circle cx="730.21" cy="469.28" r="19.98" fill="#fff" stroke="#002346" stroke-miterlimit="10"></circle>
    <rect x="509.95" y="530.25" width="179.52" height="6.75" fill="#fff" stroke="#002346" stroke-miterlimit="10"></rect>
    <path d="M583.16,235.04c.09,1.07,.26,2.13,.49,3.17-2.48,3.22-5.28,6.18-8.36,8.83-4.15,3.45-6.88,8.32-7.65,13.66-.93,6.79-.51,13.69,1.23,20.31,.02,.08,.04,.17,.07,.25,.43,1.65,1.02,3.25,1.75,4.78,2.57,8.55-4,14.53-4,14.53-5.42,6.55-5.13,17.09-5.13,17.09-5.7,27.06-19.37,15.67-19.37,15.67-2.85-5.41,3.42-12.82,3.42-12.82,2.84-3.42,1.7-11.11,1.7-11.11-3.56-6-3.27-11-2.1-14.46,.87-2.51,2.41-4.72,4.46-6.41,3.37-2.69,5.57-6.58,6.15-10.85,.44-3.76-.45-7.56-2.51-10.74-9.81-16.08,3.41-29,3.41-29,12.24-16.52,29-18.51,29-18.51-2.27,4.87-3.15,10.27-2.56,15.61Z" fill="#002346" stroke="#002346" stroke-miterlimit="10"></path>
    <path d="M580.66,313.63s-23.92,1.14-26.2,9.11c0,0-12,31.34-4.28,53.84,0,0,12.54,29.63,13.11,41.59h70.64s-2.39-16.51,1.82-30.46c.55-1.7,1.19-3.37,1.93-5,2.26-5.17,9.35-25.68-2.3-59.27-1.07-3.08-3.55-5.46-6.7-6.33-3.61-.99-9.59-2.38-19.22-4.03-.03-.04-30.79,.83-28.8,.55Z" fill="#747ddc" stroke="#002346" stroke-miterlimit="10"></path>
    <path d="M681.36,407.56l-22.65,4.63-21-29.5s11.95-26.81-6.55-64.31c0,0,12.8,2.09,21.63,22.03l23.65,42.72s6,11.74,7.2,21.37c.17,1.46-.83,2.8-2.28,3.06Z" fill="#747ddc" stroke="#002346" stroke-miterlimit="10"></path>
    <path d="M506.99,408.14l25.3,3.76,20-30.26s-7.44-15.31-3-39.53l4.38-16.55c.67-2.72,2.26-5.12,4.49-6.81,.77-.58,1.63-1.03,2.55-1.33,.11,0,.1-.17,0-.17-2.53-.12-14.11,.62-23.94,22.3l-24.78,45.86c-3.28,6.6-5.45,13.69-6.41,21-.09,.87,.54,1.64,1.41,1.73Z" fill="#747ddc" stroke="#002346" stroke-miterlimit="10"></path>
    <path d="M584.38,301.38s-.52,8.27-4.76,14.47c-.58,.83-1.05,1.73-1.4,2.68-1.27,3.63-2.74,12,7.86,17.31,2.64,1.27,5.5,2.01,8.42,2.2,6.86,.51,19.91-.09,21.12-11.94,.35-3.48-.42-6.99-2.21-10-.59-.97-1.26-1.89-2-2.76-2.96-3.9-4.19-8.84-3.41-13.67,0,0-8.52,8.42-23.62,1.71Z" fill="#f2b3c1" stroke="#002346" stroke-miterlimit="10"></path>
    <path d="M681.79,407.63s3.7,21.65-17.95,45l-8.83,10,3.7-50.42,23.08-4.58Z" fill="#f2b3c1" stroke="#002346" stroke-miterlimit="10"></path>
    <path d="M508.04,408.04s-5.22,15,11.41,36.19l17.61,22.5-4.82-54.85-24.2-3.84Z" fill="#f2b3c1" stroke="#002346" stroke-miterlimit="10"></path>
    <path d="M567.71,502.62l7.5-3.26-.65-3.26s21.52-5.22,27.07-8.8h-38.16s2.94,4.56,4.24,15.32Z" fill="#93c3fb" stroke="#002346" stroke-miterlimit="10"></path>
    <rect x="534.23" y="481.69" width="122.2" height="5.7" fill="#e6e7e8" stroke="#002346" stroke-miterlimit="10"></rect>
    <path d="M526.29,387.69h137.73c.63,0,1.14,.49,1.14,1.1v2.09l-.5,1-121,.37h-16.8c-.94,0-1.7-.76-1.7-1.7v-1.76c0-.6,.5-1.09,1.13-1.1Z" fill="#e6e7e8" stroke="#002346" stroke-miterlimit="10"></path>
    <path d="M664.24,389.65l-137.61,.22c-.79,0-1.4,.68-1.33,1.47l8.92,90.35h122.21l8.74-91c.05-.56-.38-1.04-.94-1.04Z" fill="#fff" stroke="#002346" stroke-miterlimit="10"></path>
    <path d="M525.99,502.3s-7.82-9.46-23.48-3.59c0,0-12.71,4.89-2.93,17.94,0,0,6.85,12.71,33.59,7.82,0,0-8.16-1.3-11.74-8.15-.02,0-5.57-10.76,4.56-14.02Z" fill="#747ddc" stroke="#002346" stroke-miterlimit="10"></path>
    <path d="M581.41,520.89l-6.2-21.53s-32.28,15-49.24,2.94c0,0-9.45,2.28-4.56,14,0,0,3.58,9.13,18.58,8.8,0,.02,26.42-1.61,41.42-4.21Z" fill="#f2b3c1" stroke="#002346" stroke-miterlimit="10"></path>
    <path d="M574.57,496.1l6.85,24.79s65.22-9.79,91.63-23.16c0,0,34.9-13.69,16.31-36.52,0,0-7.18-13.7-39.13,2.93,0,0-35.56,14.74-75.66,31.96Z" fill="#93c3fb" stroke="#002346" stroke-miterlimit="10"></path>
    <path d="M589.65,625.71s12.93,29.03,32.6,21.45c3.97-1.53,6.99-4.99,7.39-9.22,.19-2.04-.19-4.4-1.72-6.92-2.01-3.98-5.07-7.34-8.84-9.72-2.7-1.8-5.58-3.33-8.58-4.57,0,0-11.14,10.06-20.84,8.98Z" fill="#747ddc" stroke="#002346" stroke-miterlimit="10"></path>
    <path d="M564.14,588.04l20.54-8.8s-4.01-16.36-14.68-66.83c0,0-5.55-39.14-19.57-45,0,0-22.5-9.14-26.09,12.39,0,0-5.54,14.35,10.11,49.56l29.69,58.68Z" fill="#93c3fb" stroke="#002346" stroke-miterlimit="10"></path>
    <path d="M564.14,588.04s10.62,17.85,23.89,35.51c1.9,2.6,4.37,4.75,7.21,6.27,4.07,2.11,9.75,3.2,14.89-2.33,.64-.49,1.18-1.1,1.58-1.8,2.07-3.69,.79-8.35-2.88-10.46-7-4.13-22.17-15.39-24.15-36l-20.54,8.81Z" fill="#f2b3c1" stroke="#002346" stroke-miterlimit="10"></path>
    <rect x="567.17" y="228.38" width="56" height="77" rx="28" ry="28" fill="#f2b3c1" stroke="#002346" stroke-miterlimit="10"></rect>
    <path d="M637.35,320.75c-9.5,27.81,10.27,36.43,18.78,38.21,3.46,.71,7.05,.22,10.19-1.39,24.47-12.48,15.25-32.83,9.29-42-1.53-2.23-3.27-4.31-5.2-6.21-1.2-1.3-2.14-2.82-2.77-4.47-1.4-3.57-1.6-7.49-.59-11.18,4.07-14.91-8.34-17.95-8.34-17.95-9.68-5.12-11.39-17.94-11.39-17.94,2-26.78-12.53-35.33-12.53-35.33-26.49-19.65-41-10.25-41-10.25-11.7,5.55-12.1,18.5-10.83,25.89,.67,3.88,3.43,7.43,6.47,9.93,4.22,3.47,11.82,8.31,24.3,12,0,0,10.54,3.7,7.69,18.23,0,0-.57,10.25,9.68,20.51-.02,.02,10.24,10.24,6.25,21.95Z" fill="#002346" stroke="#002346" stroke-miterlimit="10"></path>
    <line x1="344.67" y1="58.88" x2="345.67" y2="240.88" fill="none" stroke="#002346" stroke-linecap="round" stroke-linejoin="round"></line>
  </g>
  <g>
    <path d="M314.7,426.68c1.59-7.82,7.81-13.81,15.53-15.85,10.92-2.89,28.86-2.47,43.52,22.64,0,0,13.69,22.2,5.67,54.38,0,0-1.65-16.34-27.45-28.04-2.85-1.29-5.79-2.35-8.78-3.27-8.06-2.5-32.21-11.57-28.49-29.85Z" fill="#7cd295" stroke="#002346" stroke-miterlimit="10"></path>
    <path d="M407.19,399.34c-3.49,.67-6.69,2.5-8.82,5.34-4.15,5.55-7.29,17.17,3.38,40.47,0,0,15.74,33.23-10,72.9,0,0,41.52-18.52,52-57.73,3.63-13.57,2.58-28.05-3.26-40.82-5.28-11.56-15.22-23.61-33.31-20.16Z" fill="#7cd295" stroke="#002346" stroke-miterlimit="10"></path>
    <path d="M383.96,571.17s-20.13-29.72,14.61-59.77c.78-.68,1.59-1.32,2.4-1.96,6.55-5.2,46.1-39.37,18.88-87.21" fill="none" stroke="#002346" stroke-linecap="round" stroke-linejoin="round"></path>
    <path d="M354.88,433.94s36.78,24.33,20.82,67.32c0,0-17.75,43.89,1.09,69.01" fill="none" stroke="#002346" stroke-linecap="round" stroke-linejoin="round"></path>
    <path d="M306.45,502.91c.04-4.96,3.14-9.35,7.61-11.48,6.31-3.01,17.28-4.82,29.07,8.81,0,0,10.68,11.76,9.65,31.96,0,.1-.14,.13-.18,.04-.78-1.92-4.82-9.85-19.72-13.51-1.88-.46-3.78-.77-5.7-.99-5.17-.6-20.82-3.37-20.72-14.82Z" fill="#7cd295" stroke="#002346" stroke-miterlimit="10"></path>
    <path d="M416.26,527.21s25.13-20.03,51.6-.6c0,0,12.23,9.23,9.01,19.01-1.29,3.9-4.82,6.6-8.87,7.28-5.28,.89-14.27,.61-23.93-7.51,0,0-21.47-16.46-27.8-18.19Z" fill="#7cd295" stroke="#002346" stroke-miterlimit="10"></path>
    <path d="M389.79,570.72s3.59-61.91,62.8-42.17" fill="none" stroke="#002346" stroke-linecap="round" stroke-linejoin="round"></path>
    <polygon points="405.94 634.42 350.32 634.42 346.73 568.93 409.53 568.93 405.94 634.42" fill="#fff" stroke="#002346" stroke-miterlimit="10"></polygon>
    <path d="M348.52,595.39c3.64-1.75,9.1-3.73,15.7-3.59,6.44,.14,10.51,2.22,14.81,3.59,6.19,1.97,15.5,3.32,28.7,0" fill="none" stroke="#002346" stroke-linecap="round" stroke-linejoin="round"></path>
    <path d="M348.52,603.47c3.64-1.75,9.1-3.73,15.7-3.59,6.44,.14,10.51,2.22,14.81,3.59,6.19,1.97,15.5,3.32,28.7,0" fill="none" stroke="#002346" stroke-linecap="round" stroke-linejoin="round"></path>
    <path d="M331.48,506.12s24.22,9.87,30.51,62.8" fill="none" stroke="#002346" stroke-linecap="round" stroke-linejoin="round"></path>
  </g>
</svg>
