<?xml version="1.0" encoding="UTF-8"?>
<svg xmlns="http://www.w3.org/2000/svg" id="a" width="865.76" height="682.89" viewBox="0 0 865.76 682.89">
  <g>
    <g>
      <g>
        <path d="M135.87,306.1l91.12-1.55,123.14,151.19-60.38,42.8-22.23,6.53s-1.8,1.27-4.37-3.23l-127.28-195.74Z" fill="#ebebeb"></path>
        <path d="M266.87,505.74c-.15,0-.31-.02-.49-.06-1.22-.27-2.45-1.48-3.66-3.59l-127.76-196.47,92.27-1.57,.15,.19,123.48,151.6-60.96,43.18-22.17,6.51c-.14,.08-.44,.2-.86,.2Zm-130.08-199.15l126.79,194.98c1.38,2.41,2.45,2.99,2.97,3.12,.45,.11,.7-.03,.71-.04l.13-.06,22.15-6.51,59.88-42.44-122.65-150.59-89.97,1.53Z" fill="#002346"></path>
      </g>
      <g>
        <rect x="125.67" y="289.89" width="10.53" height="25.63" fill="#ebebeb"></rect>
        <path d="M136.7,316.02h-11.53v-26.63h11.53v26.63Zm-10.53-1h9.53v-24.63h-9.53v24.63Z" fill="#002346"></path>
      </g>
      <g>
        <path d="M109.66,235.9v58.1h113.41c14.36,.04,26.03-11.56,26.08-25.92,0-.43,0-.86-.03-1.29-.76-14.37-4.9-29.29-18.64-30.45l-120.82-.44Z" fill="#fff"></path>
        <path d="M223.15,294.5H109.16v-59.1l121.32,.44c11.51,.97,18.12,11.66,19.14,30.92,.02,.44,.03,.88,.03,1.32-.02,7.08-2.8,13.73-7.82,18.72-5,4.97-11.63,7.71-18.68,7.71Zm-112.99-1h112.91c6.78,.04,13.23-2.61,18.06-7.42s7.5-11.2,7.52-18.01c0-.42,0-.84-.03-1.26-.69-13.03-4.4-28.81-18.18-29.98l-120.28-.44v57.1Z" fill="#002346"></path>
      </g>
      <g>
        <path d="M570.8,511.62c1.26-.57,2.75-.02,3.32,1.24,0,.01,.01,.02,.02,.04,1.46,3.65,2.08,12.48-13,23.64,0,0-15.7,13.27-28.55,18.59-.15,.06-.32-.02-.38-.17-.04-.09-.02-.19,.04-.27,3.6-5.29,23.13-37.15,38.55-43.07Z" fill="#6b77bd"></path>
        <path d="M532.49,555.65c-.11,0-.22-.02-.32-.07-.19-.09-.34-.24-.42-.44-.1-.25-.06-.53,.1-.75,.35-.52,.87-1.31,1.53-2.33,5.74-8.79,23.21-35.52,37.23-40.91,.73-.33,1.54-.35,2.29-.07,.75,.28,1.35,.84,1.68,1.57,1.37,3.42,2.78,12.5-13.14,24.29-.13,.11-15.88,13.36-28.66,18.65-.1,.04-.2,.06-.3,.06Zm.19-.69s0,0,0,0c0,0,0,0,0,0Zm39.17-43.07c-.28,0-.57,.06-.83,.18h-.03c-13.72,5.28-31.07,31.82-36.77,40.54-.46,.7-.85,1.29-1.16,1.77,12.5-5.39,27.61-18.1,27.77-18.23,15.81-11.71,13.84-20.62,12.86-23.07-.23-.5-.63-.88-1.13-1.06-.23-.09-.47-.13-.71-.13Z" fill="#002346"></path>
      </g>
      <g>
        <path d="M558.83,521.55s5.57,31.28,14.14,39.42c0,0-21.43,9.86-36-.85l-1.71-9.86s15.85-21,23.57-28.71Z" fill="#f2b3c1"></path>
        <path d="M553.63,565.58c-5.69,0-11.76-1.24-16.96-5.05l-.16-.12-1.78-10.27,.13-.17c.16-.21,15.96-21.12,23.62-28.76l.68-.68,.17,.94c.06,.31,5.64,31.21,13.99,39.15l.54,.51-.67,.31c-.14,.06-9.2,4.15-19.55,4.15Zm-16.2-5.74c12.74,9.19,30.98,2.48,34.67,.96-7.55-8.08-12.58-32.94-13.58-38.21-7.43,7.68-21.23,25.83-22.72,27.8l1.64,9.45Z" fill="#002346"></path>
      </g>
      <g>
        <path d="M592.78,437.73l7.54,8.62s9.43-3.23,16.7-25.32l-5.38-5.13c-3.43,9.32-10.13,17.08-18.86,21.83Z" fill="#f2b3c1"></path>
        <path d="M600.17,446.93l-8.17-9.34,.55-.3c8.62-4.69,15.24-12.35,18.63-21.56l.26-.71,6.16,5.87-.1,.3c-7.26,22.07-16.62,25.5-17.01,25.64l-.32,.11Zm-6.6-9.06l6.89,7.88c1.64-.79,9.64-5.49,15.99-24.57l-4.6-4.39c-3.47,8.93-9.93,16.38-18.28,21.09Z" fill="#002346"></path>
      </g>
      <path d="M285.89,516.97c-6.8,0-14.47-1.67-18.29-8.26h0s-.12-.21-.12-.21l.09-.25c.18-.44,.45-1.1,48.26-14.77,23.52-6.72,47.27-13.36,47.51-13.43l.41-.12,7.52,16.35-72.27,18.91c-.48,.14-6.37,1.78-13.1,1.78Zm-17.19-8.36c7.47,11.89,29.8,5.68,30.03,5.62l71.12-18.61-6.66-14.49c-25.32,7.08-88.99,25.07-94.49,27.49Zm-.24-.4s0,0,0,0c0,0,0,0,0,0h0Z" fill="#ed1c24"></path>
      <g>
        <path d="M473.87,505.97l47.89,102c1.26,2.67,4.35,3.92,7.11,2.87h0c2.75-1.04,4.23-4.02,3.4-6.84l-33.33-114.28-93.28,22.74s-15.78,13.93-38.06,8.82c0,0,7,13.46,48.73-.93,1.38,0,57.54-14.38,57.54-14.38Z" fill="#ebebeb"></path>
        <path d="M526.89,611.71c-2.32,0-4.54-1.32-5.58-3.52l-47.71-101.63c-7.24,1.85-54.17,13.85-57.15,14.28-41.62,14.34-49,1.24-49.29,.67l-.5-.96,1.05,.24c21.76,4.98,37.46-8.57,37.62-8.71l.09-.08,93.86-22.88,.13,.46,33.33,114.28c.9,3.05-.73,6.32-3.7,7.45-.71,.27-1.44,.4-2.16,.4Zm-52.74-106.32l48.07,102.37c1.14,2.42,3.98,3.56,6.48,2.62,2.49-.94,3.85-3.68,3.1-6.23l-33.2-113.82-92.7,22.6c-1.34,1.13-16.35,13.2-37,9.15,2.83,2.75,13.72,9.38,47.27-2.19l.16-.03c1.47-.1,41.95-10.4,57.42-14.36l.4-.1Z" fill="#002346"></path>
      </g>
      <g>
        <polygon points="456.41 477.41 512.55 476.13 470.77 409.28 460.57 416.55 402.63 416.99 456.41 477.41" fill="#fff"></polygon>
        <path d="M456.19,477.92l-.15-.17-54.51-61.24,58.89-.45,10.5-7.49,.28,.45,42.25,67.59-57.25,1.31Zm-52.45-60.43l52.89,59.42,55.03-1.25-41.03-65.66-9.9,7.05h-.16s-56.84,.43-56.84,.43Z" fill="#002346"></path>
      </g>
      <g id="b">
        <path d="M313.29,521.77l54.3-.49c13.36,2.59,27.2-.62,38.06-8.82l93.29-22.74,1.19-.52-6.85-13.07-36.86,1.28-126,30-17.13,14.36Z" fill="#bcbec0"></path>
      </g>
      <g>
        <path d="M313.29,521.77l54.3-.49c13.36,2.59,27.2-.62,38.06-8.82l93.29-22.74,1.19-.52-6.85-13.07-36.86,1.28-126,30-17.13,14.36Z" fill="#ebebeb"></path>
        <path d="M376.7,522.66c-3.05,0-6.12-.29-9.15-.87l-55.64,.5,18.29-15.33,.11-.03,126-30,37.27-1.3,7.25,13.82-1.68,.73-93.27,22.74c-8.46,6.36-18.73,9.73-29.17,9.73Zm-9.06-1.87h.05c13.21,2.57,26.93-.61,37.66-8.72l.18-.09,93.29-22.74,.62-.27-6.46-12.32-36.55,1.27-125.79,29.96-15.97,13.39,52.96-.48Z" fill="#002346"></path>
      </g>
      <g>
        <path d="M428.63,416.55h24.61c4.53,0,8.71,2.45,10.92,6.41,12.78,22.84,55.83,100.63,67.44,132.08,.04,.13,.18,.19,.3,.15,.05-.02,.1-.05,.12-.1,3-4.39,29.76-43.45,40.48-42.76,.3,0,.54-.23,.55-.53,0-.13-.04-.25-.12-.35-3.42-4.41-14.43-21.08-28.67-67.72,0,0-18.55-47.89-29.34-65.15,0,0-19.85-45.31-37.54-42.72,0,.04-50.45,24.59-48.76,80.69Z" fill="#6b77bd"></path>
        <path d="M531.83,555.7c-.31,0-.59-.19-.7-.5-11.62-31.47-54.53-108.99-67.4-132-2.12-3.79-6.14-6.15-10.48-6.15h-25.1v-.49c-1.61-52.85,42.79-77.89,48.74-81v-.13s.44-.06,.44-.06c17.88-2.59,37.25,41.15,38.07,43.02,10.66,17.04,29.16,64.69,29.35,65.17,14.36,47.02,25.52,63.62,28.6,67.59,.15,.19,.23,.42,.22,.67-.01,.57-.53,1.03-1.06,1.02-.09,0-.17,0-.26,0-7.9,0-25.68,21.89-39.79,42.55-.08,.13-.22,.24-.38,.29-.08,.03-.16,.04-.24,.04Zm.24-.84s0,0,0,0c0,0,0,0,0,0Zm-.45-.05s0,0,0,.01c0,0,0,0,0-.01Zm-102.5-138.76h24.12c4.71,0,9.06,2.56,11.36,6.67,12.82,22.91,55.41,99.85,67.3,131.68,7.28-10.61,30.05-42.58,40.34-42.58,.1,0,.21,0,.31,0-3.1-4.08-14.36-20.81-28.75-67.96-.17-.44-18.64-48.01-29.29-65.03-.23-.51-19.86-44.85-36.96-42.5,0,0-.02,0-.03,.01-5.1,2.64-49.71,27.22-48.4,79.69Z" fill="#002346"></path>
      </g>
      <g>
        <path d="M119.06,313.1l144.54,197.32s30.43-23.77,21.87-50.87l-141.84-149.77c-2.02-2.17-4.8-3.48-7.76-3.68-4.76-.28-11.86,.59-16.81,7Z" fill="#fff"></path>
        <path d="M263.51,511.13L118.44,313.09l.23-.3c5.01-6.49,12.14-7.5,17.23-7.19,3.1,.2,5.98,1.57,8.1,3.84l141.92,149.85,.03,.11c8.57,27.12-21.73,51.17-22.04,51.41l-.41,.32ZM119.69,313.11l144,196.59c3.54-2.94,29.04-25.17,21.33-49.89l-141.76-149.69c-1.95-2.09-4.59-3.34-7.43-3.52-4.77-.28-11.42,.63-16.15,6.51Z" fill="#002346"></path>
      </g>
      <g>
        <path d="M109.66,235.9s16.93,1.83,20.13,15.56l1.38,21.05s1.83,18.77-21.51,21.51v-58.12Z" fill="#ebebeb"></path>
        <path d="M109.16,294.58v-59.24l.55,.06c.17,.02,17.32,2.03,20.56,15.94l1.39,21.13c.02,.18,1.6,19.27-21.95,22.04l-.56,.07Zm1-58.11v56.98c22.01-2.88,20.53-20.71,20.51-20.9l-1.38-21.07c-2.75-11.76-16.22-14.55-19.13-15.02Z" fill="#002346"></path>
      </g>
      <g>
        <polygon points="367.28 278.16 378.85 281.15 375.85 285.44 366.43 281.15 367.28 278.16" fill="#f2b3c1"></polygon>
        <path d="M376.03,286.07l-10.19-4.64,1.1-3.87,12.74,3.29-3.65,5.22Zm-8.99-5.19l8.65,3.94,2.35-3.36-10.4-2.69-.6,2.11Z" fill="#002346"></path>
      </g>
      <g>
        <path d="M336.07,394.9c11.68-20.71,3.77-73.03,1.69-85.41-.21-1.25,.94-2.29,2.16-1.96l20.09,5.31,8.14-36.86c-24.43-12.38-64.2-21.28-64.2-21.28l-40.82-2.25c-62.56,7.72-55.7,55.28-55.7,55.28,2.57,78.42,54,141.41,54,141.41,9.51-5.9,19.49-10.99,29.85-15.23,0,0,36.67-15.82,44.8-39Z" fill="#728ed5"></path>
        <path d="M261.31,449.79l-.28-.34c-.51-.63-51.57-64.02-54.11-141.71-.02-.12-2.39-17.68,9.4-33.11,9.47-12.4,25.2-20.03,46.74-22.69l40.91,2.25c.48,.1,40.19,9.07,64.4,21.33l.35,.18-8.34,37.75-20.59-5.44c-.42-.11-.84,0-1.15,.28-.32,.29-.46,.69-.38,1.12,2.52,14.92,9.82,65.15-1.72,85.7-8.14,23.1-44.69,39.09-45.06,39.25-10.31,4.22-20.33,9.33-29.79,15.2l-.37,.23Zm1.78-196.85c-21.18,2.62-36.68,10.13-45.98,22.3-11.54,15.1-9.22,32.24-9.2,32.41,2.44,74.46,49.57,135.7,53.62,140.82,9.39-5.8,19.33-10.86,29.55-15.04,.36-.15,36.55-16,44.52-38.7l.04-.08c11.71-20.76,3.41-74.52,1.63-85.08-.13-.75,.13-1.51,.7-2.02,.56-.51,1.34-.71,2.08-.51l19.58,5.17,7.94-35.97c-24.12-12.12-63.34-20.98-63.74-21.06l-40.74-2.24Z" fill="#002346"></path>
      </g>
      <g>
        <path d="M261.44,449.13s4.71,3,12,.43l-3.86-6-8.14,5.57Z" fill="#728ed5"></path>
        <path d="M267.62,451.11c-3.93,0-6.3-1.47-6.44-1.56l-.64-.41,9.19-6.29,4.48,6.96-.6,.21c-2.26,.8-4.28,1.08-5.99,1.08Zm-5.19-2.04c1.48,.65,5.19,1.82,10.25,.22l-3.23-5.03-7.02,4.8Z" fill="#002346"></path>
      </g>
      <g>
        <path d="M291.11,433.06c-10,3.54-21.53,10.5-21.53,10.5,0,0,23.78,52.49,74.56,45.42,0,0,44.35,8.36,85.49-74.56,0,0,37.28-79.06,54-64.27,0,0,36.64,32.13,68.14,65.56l25.45,25.25c1.44,1.43,3.55,1.96,5.49,1.38,8.18-2.4,28.93-11.27,32.36-40.19,.27-2.07-.64-4.12-2.35-5.32-6.78-4.68-26.22-19.86-57.78-57.83,0,0-50.56-59.56-75-58.27,0,0-14.35-5.15-65.78,31.49,0,0-41.78,58.49-75.2,70.71,.04-.03-.92,30.53-47.85,50.13Z" fill="#6b77bd"></path>
        <path d="M334.97,490.13c-21.67,0-37.56-10.96-47.5-20.85-12.22-12.16-18.28-25.38-18.34-25.51l-.18-.4,.38-.23c.12-.07,11.68-7.02,21.61-10.54,44.01-18.38,47.29-46.24,47.52-49.36l-.75-.37,1.1-.4c32.89-12.03,74.55-69.95,74.96-70.53l.12-.12c49.39-35.19,64.66-32.03,66.14-31.59,.24-.01,.49-.02,.73-.02,24.67,0,72.54,56.05,74.58,58.47,31.54,37.95,50.85,53.02,57.68,57.74,1.87,1.31,2.85,3.53,2.56,5.79-3.44,28.99-24.02,38.06-32.72,40.61-2.12,.63-4.41,.06-5.98-1.5l-25.45-25.25c-31.13-33.04-67.75-65.22-68.12-65.54-1.71-1.52-3.66-2.02-5.96-1.55-17.85,3.67-46.97,65.04-47.26,65.66-21.32,42.97-43.52,61.02-58.4,68.61-15.65,7.98-26.42,6.44-27.55,6.25-3.16,.44-6.22,.64-9.17,.64Zm-64.73-46.37c2.36,4.85,26.38,51.33,73.84,44.73h.08s.08,0,.08,0c.11,.02,11.17,1.96,27.09-6.18,14.72-7.53,36.7-25.46,57.86-68.11,1.2-2.54,29.63-62.43,47.96-66.2,2.59-.53,4.88,.07,6.82,1.78,.37,.32,37.02,32.53,68.17,65.59l25.44,25.24c1.31,1.3,3.22,1.79,5,1.25,8.5-2.49,28.64-11.36,32.01-39.77,.24-1.9-.58-3.76-2.14-4.85-6.87-4.74-26.26-19.88-57.88-57.92-.5-.59-50.71-59.39-74.59-58.09h-.1s-.09-.03-.09-.03c-.14-.05-14.91-4.47-65.25,31.38-1.66,2.3-42.46,58.51-75.07,70.7-.21,2.97-3.38,31.54-48.14,50.24h-.03c-8.81,3.13-18.96,9-21.05,10.24Z" fill="#002346"></path>
      </g>
      <g>
        <path d="M536.94,560.12l-1.28,16.71s-.86,12.86,12.85,13.28c0,0,17.45,.87,26.09,5,2.9,1.39,5.76,2.84,8.78,4,11.59,4.27,36.06,12,45.48,5.26,0,0,9.32-7.71-9-15.1,0,0-35-14.14-46.92-28.29,0-.01-19.25,9.85-36-.86Z" fill="#ebebeb"></path>
        <path d="M617.84,607.53c-10.98,0-25.37-4.54-34.63-7.95-2.51-.96-4.95-2.14-7.3-3.28l-1.52-.74c-8.45-4.04-25.73-4.94-25.9-4.95-4.32-.13-7.69-1.49-10-4.04-3.66-4.03-3.33-9.54-3.32-9.77l1.34-17.55,.7,.45c15.69,10.03,33.5,1.81,35.48,.84l.25-.12,.38,.24c11.7,13.89,46.38,28.01,46.72,28.15,7.14,2.88,11.05,6.19,11.61,9.82,.55,3.57-2.36,6.03-2.48,6.13-2.78,1.99-6.76,2.78-11.34,2.78Zm-80.46-46.55l-1.22,15.89s-.3,5.32,3.07,9.03c2.12,2.34,5.25,3.58,9.3,3.71,.73,.04,17.66,.92,26.29,5.05l1.53,.74c2.33,1.13,4.75,2.3,7.21,3.25,10.41,3.83,35.63,12.03,45.01,5.32,0,0,2.58-2.19,2.1-5.2-.5-3.21-4.31-6.34-11-9.04-.35-.14-34.77-14.15-46.86-28.14-3.19,1.49-20.14,8.62-35.43-.62Z" fill="#002346"></path>
      </g>
      <g>
        <path d="M640.18,446.08v-.15c-.25-4.24-.92-8.45-2-12.56-2.42-9.29-1.77-20.42-1.77-20.42l-19.39,8.08s-3.77,17-16.7,25.32c0,0,5.39,24,21.82,14.27,0,0,5.39-1.61,18.04-14.54Z" fill="#ebebeb"></path>
        <path d="M614.75,463.44c-1.43,0-2.8-.28-4.12-.85-7.85-3.39-10.68-15.61-10.79-16.13l-.08-.34,.29-.19c12.6-8.11,16.45-24.84,16.48-25.01l.06-.25,.24-.1,20.13-8.39-.05,.8c0,.11-.62,11.16,1.75,20.27,1.09,4.13,1.77,8.39,2.02,12.66v.38s-.14,.15-.14,.15c-11.49,11.74-16.96,14.19-18.15,14.61h0c-2.69,1.6-5.25,2.4-7.65,2.4Zm-13.85-16.87c.51,1.99,3.44,12.21,10.13,15.1,3.21,1.39,6.86,.89,10.86-1.48l.17-.07c.62-.23,6.07-2.46,17.62-14.24-.25-4.16-.92-8.33-1.98-12.38-2.04-7.83-1.91-17.06-1.82-19.78l-18.43,7.68c-.54,2.16-4.7,17.34-16.56,25.18Z" fill="#002346"></path>
      </g>
      <g>
        <path d="M636.41,412.95s22.36-8.88,35.29-18.85c0,0,10.27-8.73,15.65-3.35l-14,27.79c-1.69,3.63-3.84,7.02-6.41,10.08-1.74,1.95-4,3.85-6.11,5.94-1.78,1.7-3.3,3.65-4.52,5.78l-15.13,27.44s.09-14.47-1-21.85c-.27-4.24-.94-8.45-2-12.56,0,0-1.77-6.95-1.77-20.42Z" fill="#728ed5"></path>
        <path d="M640.67,469.75v-1.97c.01-.14,.09-14.52-.98-21.77-.27-4.24-.94-8.43-1.99-12.51-.02-.07-1.79-7.17-1.79-20.55v-.34l.32-.12c.22-.09,22.44-8.97,35.17-18.78,.42-.36,10.67-8.95,16.31-3.31l.26,.26-.16,.32-14,27.79c-1.7,3.65-3.88,7.08-6.47,10.18-1.1,1.23-2.37,2.41-3.71,3.66-.81,.75-1.63,1.52-2.43,2.31-1.75,1.67-3.24,3.58-4.44,5.67l-16.08,29.16Zm-3.76-56.46c.03,13.02,1.74,19.89,1.75,19.96,1.06,4.13,1.74,8.39,2.01,12.65,.84,5.69,.98,15.73,1,19.94l14.19-25.74c1.25-2.18,2.8-4.17,4.61-5.9,.8-.79,1.63-1.57,2.45-2.33,1.32-1.23,2.57-2.4,3.63-3.58,2.53-3.02,4.66-6.37,6.33-9.96l13.84-27.47c-5.07-4.47-14.61,3.54-14.71,3.62-12.02,9.27-32.34,17.68-35.11,18.81Z" fill="#002346"></path>
      </g>
      <g>
        <path d="M659.04,458.2l-4-1.62s-2.43,0,3.77-9.69l.45-.53c7.93-9.31,14.78-19.5,20.42-30.35l12.26-23.77c.56-1.09,.22-2.43-.8-3.11h0c-1.12-.73-2.62-.43-3.35,.69-.05,.07-.09,.14-.13,.22l-16,31.26c-2.93,4.95-6.6,9.42-10.89,13.26-2.65,2.62-4.8,5.71-6.35,9.1l-20.15,36.37c-.32,.58-.1,1.31,.48,1.63,0,0,0,0,0,0l6.65,3.5c1.39,.73,3.1,.2,3.84-1.18l13.79-25.78Z" fill="#fff"></path>
        <path d="M642.73,485.99c-.52,0-1.05-.12-1.55-.38l-6.73-3.54c-.37-.23-.63-.57-.75-.97-.13-.43-.08-.89,.14-1.29l20.15-36.37c1.56-3.43,3.73-6.54,6.44-9.21,4.27-3.82,7.91-8.25,10.81-13.16l15.99-31.23c.05-.09,.1-.18,.15-.26,.89-1.35,2.7-1.72,4.05-.84,1.23,.83,1.65,2.44,.97,3.76l-12.26,23.77c-5.65,10.87-12.54,21.12-20.48,30.44l-.45,.53c-4.98,7.79-4.07,8.88-4.06,8.89l4.61,1.84-14.05,26.27c-.6,1.13-1.76,1.77-2.96,1.77Zm-7.68-4.74l6.6,3.47c1.14,.59,2.56,.16,3.17-.97l13.53-25.29-3.42-1.39c-.22-.04-.49-.19-.67-.5-.69-1.26,.67-4.51,4.14-9.95l.49-.58c7.9-9.27,14.74-19.45,20.36-30.26l12.26-23.77c.45-.86,.17-1.92-.63-2.46-.88-.58-2.07-.33-2.66,.55-.04,.06-.07,.11-.1,.17l-16,31.26c-2.97,5.03-6.67,9.53-11,13.41-2.6,2.57-4.7,5.58-6.23,8.93l-20.17,36.4c-.09,.16-.11,.35-.05,.53,.05,.18,.17,.33,.34,.42l.05,.03Z" fill="#002346"></path>
      </g>
      <g>
        <path d="M719.11,594.3s18,16,32.68,23.08c0,0,12.88,5.24,10,12.88l-31.08-.48c-3.9,.04-7.79-.45-11.56-1.45-2.52-.67-4.81-.73-8.36-2.19-2.28-.99-4.72-1.59-7.2-1.78l-31.06-1.27s12.72-6.36,18.84-10.63c3.67-2.14,7.13-4.63,10.33-7.42,0,0,5.38-4.69,17.41-10.74Z" fill="#728ed5"></path>
        <path d="M762.14,630.77l-31.43-.49c-3.91,.02-7.87-.45-11.68-1.47-.81-.22-1.59-.37-2.43-.53-1.67-.32-3.57-.68-6-1.68-2.25-.98-4.61-1.56-7.05-1.74l-32.98-1.35,1.74-.87c.13-.06,12.76-6.39,18.78-10.59,3.67-2.15,7.12-4.62,10.29-7.39,.05-.05,5.57-4.8,17.51-10.81l.3-.15,.25,.23c.18,.16,18.12,16.04,32.56,23,.52,.21,13.27,5.5,10.25,13.51l-.12,.33Zm-31.43-1.49l30.73,.47c2.18-6.92-9.71-11.86-9.83-11.91-13.65-6.58-30.31-20.97-32.57-22.94-11.61,5.87-16.95,10.47-17.01,10.52-3.22,2.8-6.72,5.32-10.41,7.47-4.71,3.29-13.47,7.88-17.16,9.78l29.15,1.19c2.56,.19,5.04,.8,7.38,1.82,2.33,.96,4.09,1.3,5.8,1.62,.85,.16,1.65,.32,2.49,.54,3.73,.99,7.57,1.46,11.43,1.43Z" fill="#002346"></path>
      </g>
      <g>
        <path d="M688.82,634.82l-.36-4.33s-1.09-2.17,10.35-1l.68,.16c11.88,2.91,24.06,4.47,36.29,4.64l26.77,.36c1.23,.02,2.27-.89,2.42-2.11h0c.17-1.32-.77-2.52-2.08-2.68-.1-.01-.19-.02-.29-.02l-35.12-.28c-5.74-.39-11.38-1.67-16.73-3.78-3.54-1.19-7.27-1.73-11-1.59l-41.55-1.69c-.66-.02-1.22,.5-1.24,1.16,0,0,0,0,0,.01l-.14,7.51c-.03,1.57,1.21,2.86,2.78,2.9l29.22,.74Z" fill="#fff"></path>
        <path d="M689.37,635.34l-29.78-.75c-1.83-.04-3.3-1.57-3.27-3.41l.14-7.58c.03-.43,.21-.84,.53-1.13,.33-.31,.76-.46,1.22-.46l41.55,1.69c3.77-.14,7.53,.4,11.14,1.62,5.33,2.11,10.91,3.37,16.61,3.75l35.09,.28c.11,0,.23,0,.34,.02,1.59,.2,2.72,1.65,2.52,3.24-.18,1.47-1.47,2.59-2.92,2.55l-26.77-.36c-12.25-.17-24.5-1.74-36.4-4.66l-.67-.16c-9.2-.93-9.76,.37-9.77,.38l.43,4.97Zm-31.91-11.61l-.14,7.46c-.02,1.29,1,2.36,2.29,2.39l28.66,.73-.31-3.71c-.06-.22-.05-.52,.15-.82,.82-1.18,4.33-1.44,10.75-.78l.74,.17c11.83,2.9,24,4.46,36.18,4.63l26.77,.36c.93,0,1.8-.7,1.92-1.67,.13-1.04-.61-1.99-1.65-2.12-.07,0-.15-.01-.23-.01l-35.12-.28c-5.83-.4-11.51-1.68-16.91-3.82-3.47-1.17-7.12-1.69-10.8-1.55l-41.59-1.69c-.17-.02-.36,.06-.5,.19-.14,.13-.21,.3-.22,.49v.05Z" fill="#002346"></path>
      </g>
      <g>
        <path d="M255.29,510.61l-13.6,93.88c-.43,2.96,1.62,5.7,4.58,6.13,.02,0,.05,0,.07,0h0c2.9,.35,5.55-1.66,6-4.54l13.6-88.52-10.65-6.96Z" fill="#ebebeb"></path>
        <path d="M247.02,611.17c-.24,0-.49-.01-.73-.04-1.64-.24-3.03-1.06-3.97-2.32-.95-1.26-1.34-2.82-1.11-4.38l13.71-94.66,11.58,7.57-13.65,88.84c-.45,2.92-2.94,5-5.82,5Zm8.66-99.71l-13.49,93.1c-.19,1.3,.14,2.59,.92,3.64,.79,1.05,1.93,1.73,3.23,1.92,2.7,.33,5.1-1.48,5.51-4.11l13.55-88.2-9.72-6.35Z" fill="#002346"></path>
      </g>
      <g>
        <path d="M278.37,224.16s-5.43,19.33-13.43,27.06c-1.19,1.17-1.71,2.86-1.37,4.49,1.29,6.46,5.94,21.6,21.59,25.43,6.39,1.72,13.22,.15,18.22-4.19,4.55-4.14,7.72-11.16,.55-22.26-.95-2.53-1.14-5.29-.56-7.93,0,0-13.69-.04-25-22.6Z" fill="#f2b3c1"></path>
        <path d="M290.34,282.32c-1.77,0-3.55-.23-5.3-.7-15.94-3.9-20.66-19.35-21.95-25.82-.38-1.8,.19-3.66,1.51-4.95,7.81-7.55,13.24-26.65,13.3-26.84l.35-1.24,.58,1.16c11.02,21.97,24.42,22.32,24.56,22.32h.62s-.13,.61-.13,.61c-.56,2.54-.38,5.16,.52,7.6,7.47,11.59,3.76,18.83-.66,22.86-3.77,3.27-8.53,5-13.38,5Zm-11.84-56.82c-1.34,4.39-6.27,19.37-13.21,26.08-1.07,1.05-1.53,2.56-1.23,4.03,1.25,6.28,5.83,21.28,21.22,25.05,6.25,1.67,12.89,.15,17.77-4.08,6.02-5.48,6.18-12.75,.46-21.61l-.05-.1c-.92-2.45-1.15-5.08-.69-7.64-2.77-.27-14.28-2.57-24.27-21.72Z" fill="#002346"></path>
      </g>
      <g>
        <polygon points="363.85 279.87 299.58 365.14 358.71 393.43 439.27 312.86 363.85 279.87" fill="#ebebeb"></polygon>
        <path d="M358.82,394.04l-.32-.15-59.68-28.55,64.88-86.07,76.45,33.44-81.33,81.34Zm-58.47-29.08l58.26,27.87,79.79-79.8-74.39-32.54-63.66,84.47Z" fill="#002346"></path>
      </g>
      <g>
        <polygon points="375.85 285.44 383.14 276.87 439.27 312.86 375.85 285.44" fill="#fff"></polygon>
        <path d="M439.08,313.32l-64.04-27.69,8.01-9.42,56.5,36.22-.47,.88Zm-62.4-28.07l57.15,24.71-50.58-32.43-6.57,7.72Z" fill="#002346"></path>
      </g>
      <g>
        <path d="M412.7,271.73l26.41,40.89s0,.12-.09,.08l-43-27.69,16.68-13.28Z" fill="#ebebeb"></path>
        <path d="M439.06,313.21c-.08,0-.16-.02-.24-.05l-43.65-28.1,17.66-14.06,26.79,41.48v.42l-.26,.23c-.09,.06-.19,.09-.3,.09Zm-42.18-28.24l40.71,26.21-25-38.72-15.7,12.5Z" fill="#002346"></path>
      </g>
      <g>
        <path d="M456.41,477.41l-175.26,41.57s14.14-64.71,70.28-91.7c0,0,87.41-45.64,104.98,50.13Z" fill="#fff"></path>
        <path d="M280.5,519.65l.17-.78c.14-.65,14.84-65.26,70.55-92.04,.38-.2,39.75-20.39,70.78-5.24,17.99,8.78,29.73,27.53,34.91,55.73l.08,.47-.46,.11-176.03,41.75Zm115.22-102.7c-23.05,0-43.77,10.62-44.05,10.77-51.96,24.98-67.98,83.15-69.83,90.58l174.01-41.27c-5.16-27.61-16.69-45.96-34.27-54.54-8.31-4.06-17.24-5.54-25.85-5.54Z" fill="#002346"></path>
      </g>
      <g>
        <path d="M296.36,525.96c-28.76,7.5-44.18-20.42-44.18-20.42l-70-95.87-30.35,195c-.47,3.02-3.29,5.08-6.31,4.62-.13-.02-.27-.05-.4-.08h0c-2.84-.65-4.68-3.39-4.22-6.27l33.54-209.3c.26-1.61,1.52-2.87,3.13-3.14h0c1.42-.23,2.84,.35,3.69,1.51l83.68,112.2c.6,.8,1.62,1.14,2.58,.86l114.3-33.4c1.35-.39,2.13-1.8,1.74-3.16,0-.01,0-.03-.01-.04l-9.81-32.4c-3.04-10.56-9.79-19.68-19-25.67-5.1-3.2-11.11-5.48-17.53-4.89l-88.65-.78c-3.21-.03-5.78-2.66-5.75-5.87,0-.04,0-.09,0-.13h0c.12-3.17,2.75-5.66,5.92-5.6l92.23,2s30.85-.84,42.1,35.84l52.88,173.93c.93,3.07-.8,6.32-3.87,7.25-.04,.01-.09,.03-.13,.04h0c-2.72,.76-5.59-.54-6.81-3.08l-49.58-103.16-79.19,20.01Z" fill="#ebebeb"></path>
        <path d="M430.37,612.91c-2.38,0-4.61-1.35-5.69-3.58l-49.4-102.79-78.79,19.91c-28.79,7.52-44.58-20.38-44.74-20.66l-69.25-94.84-30.17,193.81c-.25,1.59-1.1,2.99-2.4,3.94-1.3,.95-2.9,1.33-4.49,1.09-.14-.02-.29-.05-.43-.08-3.08-.71-5.11-3.71-4.6-6.84l33.54-209.3c.3-1.82,1.72-3.25,3.54-3.55,1.61-.26,3.21,.39,4.18,1.71l83.68,112.2c.47,.63,1.29,.9,2.04,.68l114.3-33.4c.53-.15,.96-.5,1.23-.98s.33-1.03,.17-1.56l-9.82-32.44c-3.01-10.45-9.68-19.47-18.79-25.4-5.89-3.7-11.69-5.31-17.21-4.81l-88.7-.78c-1.69-.02-3.26-.69-4.44-1.89-1.18-1.2-1.82-2.79-1.8-4.48v-.15c.13-3.37,2.95-6.08,6.32-6.08,.04,0,.07,0,.11,0l92.23,2c.3,.02,31.34-.42,42.57,36.19l52.88,173.93c1.01,3.33-.87,6.86-4.2,7.88l-.14,.04c-.57,.16-1.14,.24-1.71,.24Zm-54.54-107.54l49.76,103.53c1.12,2.33,3.74,3.51,6.23,2.82l.12-.04c2.8-.85,4.38-3.83,3.53-6.63l-52.88-173.93c-11-35.87-41.33-35.49-41.61-35.49l-92.25-2c-2.85-.08-5.3,2.25-5.41,5.12v.12c-.02,1.42,.52,2.76,1.52,3.77s2.32,1.58,3.74,1.59l88.65,.78c5.71-.52,11.7,1.14,17.79,4.97,9.32,6.06,16.14,15.28,19.21,25.96l9.81,32.39c.24,.83,.15,1.66-.25,2.37-.39,.71-1.04,1.23-1.82,1.46l-114.3,33.4c-1.15,.34-2.41-.08-3.12-1.04l-83.68-112.2c-.74-1.02-1.97-1.52-3.21-1.32-1.4,.23-2.49,1.33-2.72,2.73l-33.54,209.3c-.42,2.61,1.26,5.11,3.84,5.7,.12,.03,.24,.05,.36,.07,1.33,.21,2.66-.12,3.74-.91s1.79-1.96,2-3.29l30.54-196.19,70.71,96.85c.17,.29,12.17,21.48,34.23,21.48,2.96,0,6.1-.38,9.42-1.25h0s79.58-20.11,79.58-20.11Z" fill="#002346"></path>
      </g>
      <g>
        <path d="M189.45,349.29s-9,48,16.71,50.13c0,0,87.58,4.57,146.32-26.33,1.66-.89,3.64-.94,5.35-.15,3.52,1.66,9.87,3.79,13.74-.08,0,0,5.92,.37,8.82-6.11,.4-.87,1.36-1.35,2.3-1.15,2.89,.54,8.61,.49,9.87-7.74,0,0,9,3,9-6.86l-3.42,3s-32.57-7.28-28.29-14.14c0,0,10.69-11.08,9.24-17.65-.13-.5-.61-.82-1.12-.74-1.89,.27-6.7,1.92-13.26,11.11,0,0-18.85,23.57-47.14,24.85,0,0-23.05,5.26-72.32-3.48-2.41-.43-4.01-2.75-3.54-5.15l.02-.08-52.28,.57Z" fill="#f2b3c1"></path>
        <path d="M217.83,400.14c-7.21,0-11.5-.21-11.69-.22-5.14-.42-9.28-2.67-12.34-6.68-10.39-13.63-5.07-42.8-4.83-44.04l.08-.4h.41s52.89-.58,52.89-.58l-.12,.6c-.22,1.11,0,2.15,.6,3.02,.59,.87,1.49,1.44,2.52,1.63,48.6,8.62,71.89,3.54,72.12,3.48,27.83-1.27,46.67-24.44,46.86-24.67,6.46-9.06,11.28-10.96,13.58-11.29,.77-.11,1.49,.36,1.68,1.11,1.46,6.63-8.51,17.22-9.33,18.08-.33,.56-.37,1.13-.12,1.73,2.3,5.5,25.23,10.95,27.88,11.56l4.06-3.56v1.1c0,3.14-.89,5.38-2.64,6.64-2.25,1.62-5.23,1.14-6.46,.85-.55,2.97-1.75,5.13-3.57,6.42-2.26,1.6-4.94,1.53-6.79,1.18-.73-.16-1.45,.2-1.75,.87-2.67,5.97-7.91,6.39-9.07,6.4-4.11,3.89-10.61,1.7-14.15,.03-1.55-.72-3.39-.67-4.9,.14-45.52,23.95-108.99,26.6-134.89,26.6Zm-27.96-50.35c-.61,3.61-4.76,30.42,4.72,42.85,2.88,3.77,6.78,5.89,11.61,6.29,.86,.04,88.11,4.2,146.05-26.27,1.79-.95,3.95-1.01,5.79-.16,3.35,1.58,9.51,3.68,13.18,.02l.16-.16h.23c.23,.03,5.62,.27,8.33-5.8,.51-1.1,1.68-1.69,2.86-1.44,1.65,.31,4.04,.38,6.01-1.02,1.71-1.21,2.8-3.33,3.26-6.31l.09-.58,.56,.19s3.69,1.19,6.12-.56c1.27-.92,2-2.49,2.18-4.69l-2.74,2.4-.25-.05c-1.07-.24-26.19-5.92-28.83-12.21-.39-.93-.31-1.83,.22-2.69l.06-.08c.1-.11,10.49-10.96,9.11-17.2-.06-.23-.31-.39-.56-.35-1.73,.25-6.43,1.8-12.93,10.91-.21,.26-19.33,23.78-47.52,25.06-.14,.04-23.63,5.17-72.43-3.49-1.3-.23-2.43-.96-3.17-2.04-.65-.94-.94-2.05-.84-3.17l-51.28,.56Z" fill="#002346"></path>
      </g>
      <g>
        <rect x="275.83" y="172.16" width="58.5" height="76" rx="29.25" ry="29.25" fill="#f2b3c1"></rect>
        <path d="M305.08,248.66c-16.4,0-29.75-13.35-29.75-29.75v-17.5c0-16.4,13.35-29.75,29.75-29.75s29.75,13.35,29.75,29.75v17.5c0,16.4-13.35,29.75-29.75,29.75Zm0-76c-15.85,0-28.75,12.9-28.75,28.75v17.5c0,15.85,12.9,28.75,28.75,28.75s28.75-12.9,28.75-28.75v-17.5c0-15.85-12.9-28.75-28.75-28.75Z" fill="#002346"></path>
      </g>
      <g>
        <path d="M323.73,153.62c5.31,3.04,9.58,7.62,12.56,12.97,1,1.79,1.99,3.53,2.04,3.57,.03,.03,8.49-5.26,8.49,5.3,0,0,2.51,21.7-18.94,20.79h-.12c-.65,0-6.74-.52-24.15-12.12-2.4-1.67-5.34-2.38-8.24-2-3.31,.51-6.12,2.7-7.43,5.78-1.43,3-5.09,7.32-8.36,7.58-1.88,.15-2.29-.57-4.6,.45l1.03,15.16s-.68,7.06,.32,14.06c0,0-8-3-15.75-17.06,0,0-14.25-32.94,12.75-48.94,0,0,27.88-18.43,50.4-5.54Z" fill="#002346"></path>
        <path d="M276.94,225.92l-.79-.3c-.33-.12-8.26-3.23-16.01-17.29-.17-.38-14.14-33.57,12.93-49.61,.26-.17,28.37-18.43,50.9-5.54,5.2,2.98,9.61,7.53,12.75,13.16,.76,1.37,1.45,2.57,1.79,3.15,1.65-.84,4.28-1.78,6.31-.57,1.66,.98,2.5,3.18,2.5,6.53,.04,.35,1.08,10-4.73,16.25-3.36,3.61-8.32,5.3-14.73,5.03h-.1c-.62,0-6.62-.34-24.43-12.2-2.31-1.61-5.11-2.29-7.9-1.92-3.15,.48-5.79,2.53-7.04,5.48-1.44,3.02-5.22,7.6-8.78,7.88-.7,.06-1.21,0-1.66-.05-.74-.08-1.3-.14-2.46,.32l1,14.8c0,.15-.67,7.17,.31,14.03l.12,.83Zm28.85-76.35c-16.8,0-31.98,9.86-32.19,10-26.32,15.6-12.7,48-12.56,48.32,6.15,11.16,12.49,15.26,14.67,16.42-.82-6.67-.2-13.2-.2-13.27l-1.05-15.43,.32-.14c1.63-.72,2.44-.63,3.29-.54,.42,.05,.87,.1,1.47,.05,3.03-.24,6.56-4.39,7.95-7.3,1.38-3.25,4.3-5.52,7.8-6.06,3.04-.41,6.09,.34,8.6,2.08,17.85,11.89,23.63,12.03,23.86,12.03h.12c6.12,.27,10.82-1.32,13.97-4.71,5.5-5.91,4.48-15.43,4.47-15.52,0-3.03-.68-4.93-2.01-5.72-1.84-1.09-4.56,.17-5.65,.76-.12,.07-.38,.21-.64,0-.08-.06-.17-.13-2.17-3.72-3.05-5.47-7.33-9.89-12.38-12.78-5.71-3.27-11.8-4.48-17.68-4.48Z" fill="#002346"></path>
      </g>
      <g>
        <ellipse cx="277.95" cy="203.24" rx="6.49" ry="8.38" fill="#f2b3c1"></ellipse>
        <path d="M277.95,212.12c-3.85,0-6.99-3.98-6.99-8.88s3.14-8.88,6.99-8.88,6.99,3.98,6.99,8.88-3.14,8.88-6.99,8.88Zm0-16.76c-3.3,0-5.99,3.54-5.99,7.88s2.69,7.88,5.99,7.88,5.99-3.54,5.99-7.88-2.69-7.88-5.99-7.88Z" fill="#002346"></path>
      </g>
      <g>
        <path d="M254.15,349.29h-70.27s-2.57-83.56,41.56-82.28c0,0,51.43-2.11,28.71,82.28Z" fill="#728ed5"></path>
        <path d="M254.54,349.79h-71.14l-.02-.48c-.02-.53-1.37-52.76,19.72-73.88,6.16-6.17,13.67-9.16,22.36-8.92,.12,0,15.38-.48,25.64,12.35,11.18,13.99,12.38,37.73,3.54,70.56l-.1,.37Zm-70.16-1h69.4c8.64-32.3,7.48-55.61-3.44-69.29-9.94-12.44-24.72-12.01-24.86-11.99-8.44-.26-15.7,2.66-21.66,8.62-19.71,19.74-19.52,67.32-19.43,72.66Z" fill="#002346"></path>
      </g>
    </g>
    <g>
      <g>
        <path d="M175.06,527.87s20.5-17.24,43.78-.46c0,0,14.62,11.37,4.87,21.11,0,0-10.29,7.04-25.44-4.87,0,0-16.11-13.15-23.21-15.78Z" fill="#7cd295"></path>
        <path d="M215.48,551.08c-4.51,0-10.54-1.5-17.55-7.01-.17-.14-16.13-13.13-23.06-15.69l-.88-.33,.72-.6c.21-.17,21.1-17.32,44.45-.49,.34,.26,7.98,6.28,8.43,13.49,.19,3.1-.98,5.94-3.49,8.45-.1,.07-3.29,2.18-8.62,2.18Zm-39.33-23.36c7.44,3.27,21.83,14.98,22.47,15.5,14.66,11.52,24.69,4.91,24.79,4.84,2.2-2.21,3.26-4.77,3.09-7.54-.42-6.72-7.92-12.63-7.99-12.69-20.2-14.56-38.51-2.91-42.36-.11Z" fill="#002346"></path>
      </g>
      <g>
        <path d="M152.39,519.44s22.6-31.55,9.07-62.41c0,0-15.16-30.31,2.71-39.52,0,0,22.19-9.2,34.1,23.28,0,0,15.97,47.4-45.88,78.65Z" fill="#7cd295"></path>
        <path d="M150.65,520.93l1.29-1.81c.22-.31,22.26-31.66,9.01-61.87-.14-.28-15.18-30.88,2.96-40.22,.36-.15,7.86-3.18,16.59,.65,7.8,3.42,13.95,11.13,18.27,22.92,.04,.13,4,12.2,.27,27.92-3.44,14.49-14.28,35.17-46.42,51.4l-1.98,1Zm20.7-104.07c-4.11,0-6.93,1.14-6.97,1.16-17.14,8.83-2.58,38.47-2.43,38.77,11.7,26.68-3.52,54.13-7.97,61.22,30.3-15.88,40.67-35.71,43.99-49.67,3.68-15.44-.19-27.25-.22-27.37-4.21-11.48-10.16-18.99-17.68-22.28-3.17-1.39-6.19-1.82-8.72-1.82Z" fill="#002346"></path>
      </g>
      <g>
        <path d="M94.93,428.5c-5.61,2.77-9.3,8.46-9.21,14.71,.11,7.82,4.91,18.58,27.55,24.64,0,0,26.56,6.58,29.52,26.3,0,0,7.33-24.43-5.17-47.77-4.79-8.94-12.75-15.85-22.46-18.79-6.09-1.85-13.37-2.48-20.24,.91Z" fill="#7cd295"></path>
        <path d="M142.62,496.65l-.36-2.41c-2.87-19.12-28.85-25.78-29.11-25.85-22.9-6.13-27.85-17.06-27.97-25.16-.09-6.35,3.64-12.32,9.51-15.21h0c6-2.96,12.95-3.28,20.64-.94,9.68,2.94,17.77,9.7,22.78,19.06,12.46,23.26,5.28,47.93,5.21,48.18l-.7,2.34Zm-37-70.02c-3.75,0-7.24,.79-10.45,2.37h0c-5.5,2.71-8.99,8.29-8.9,14.22,.11,7.72,4.92,18.17,27.15,24.12,.25,.06,24.76,6.34,29.42,24.32,1.42-6.64,4.33-26.29-5.7-45.01-4.87-9.1-12.73-15.68-22.13-18.53-3.28-1-6.42-1.49-9.39-1.49Z" fill="#002346"></path>
      </g>
      <g>
        <path d="M93.67,509.67c1.36,2.6,3.89,5.49,8.24,8.53,0,0,17.1,9.91,21.54,23.9,0,0-.43-22.82-13.42-40.14,0,0-1.13-2.13-3.45-3.8-7.65-5.51-17.3,3.15-12.91,11.51Z" fill="#7cd295"></path>
        <path d="M124.07,545.85l-1.14-3.58c-4.33-13.62-21.12-23.5-21.29-23.59-4.05-2.84-6.88-5.77-8.45-8.75h0c-2.45-4.66-.67-9.24,2.17-11.71,3.37-2.93,7.9-3.12,11.55-.5,2.39,1.72,3.56,3.9,3.61,3.99,12.9,17.19,13.48,40.16,13.48,40.39l.07,3.75Zm-22.59-48.87c-2.15,0-4.08,.92-5.4,2.06-2.33,2.03-4.24,5.96-1.92,10.37h0c1.48,2.82,4.2,5.63,8.07,8.34,.61,.35,14.69,8.63,20.43,20.85-.7-7.05-3.33-23.33-13.06-36.31-.06-.09-1.15-2.12-3.33-3.68-1.62-1.17-3.27-1.63-4.79-1.63Z" fill="#002346"></path>
      </g>
      <g>
        <polygon points="114.36 563.68 117.24 620.25 165.25 620.25 168.5 564.22 114.36 563.68" fill="#fff"></polygon>
        <path d="M165.25,620.8h-48.01c-.29,0-.53-.23-.55-.52l-2.88-56.57c0-.15,.05-.3,.15-.41,.1-.11,.23-.17,.4-.17l54.13,.54c.15,0,.29,.06,.39,.17,.1,.11,.15,.26,.15,.4l-3.25,56.03c-.02,.29-.26,.51-.55,.51Zm-47.49-1.09h46.97l3.19-54.94-52.98-.53,2.82,55.47Z" fill="#002346"></path>
      </g>
      <path d="M151.72,563.95s-.03,0-.04,0c-.3-.02-.53-.29-.5-.59,.02-.22,1.87-22.56,17.23-32.96,9.1-6.16,21.02-6.98,35.44-2.44,.29,.09,.45,.4,.36,.68s-.39,.45-.68,.36c-14.09-4.43-25.69-3.66-34.5,2.3-14.92,10.1-16.74,31.92-16.76,32.14-.02,.29-.26,.5-.54,.5Z" fill="#002346"></path>
      <path d="M143.38,563.58c-.24,0-.46-.16-.53-.4-8.51-30.41,12.09-48.04,16.31-51.26,1.26-.96,2.73-2.11,4.15-3.33,37.4-32.19,15.77-68.23,15.54-68.59-.16-.26-.08-.59,.18-.75,.26-.16,.59-.08,.75,.18,.23,.37,22.37,37.18-15.76,69.99-1.44,1.24-2.93,2.4-4.2,3.37-4.12,3.15-24.24,20.36-15.92,50.1,.08,.29-.09,.59-.38,.67-.05,.01-.1,.02-.15,.02Z" fill="#002346"></path>
      <path d="M139.49,563.98c-.18,0-.36-.09-.46-.26-13.23-21.32-3.37-48.48-.03-56.3,.84-1.97,1.43-3.61,1.87-5.17,9.29-33.46-18.95-53.77-19.24-53.97-.25-.17-.31-.51-.13-.76,.17-.25,.51-.31,.76-.13,.29,.21,29.16,20.94,19.66,55.16-.45,1.61-1.06,3.3-1.92,5.31-3.29,7.69-13,34.42-.05,55.29,.16,.26,.08,.59-.18,.75-.09,.06-.19,.08-.29,.08Z" fill="#002346"></path>
      <path d="M125.57,563.64s-.01,0-.02,0c-.3-.01-.54-.27-.52-.57,1.44-35.55-19.41-49.69-19.63-49.83-.25-.17-.32-.5-.16-.76,.17-.25,.5-.32,.76-.16,.22,.14,21.58,14.59,20.12,50.78-.01,.29-.25,.52-.55,.52Z" fill="#002346"></path>
    </g>
  </g>
  <path d="M780.58,279.55h-167V47.55h167v232Zm-166-1h165V48.55h-165v230Z" fill="#002346"></path>
  <path d="M774.08,270.05h-153V58.05h153v212Zm-152-1h151V59.05h-151v210Z" fill="#002346"></path>
  <path d="M640.25,270.49l-.54-.84c26.6-17.11,31.28-63.13,32.06-82.12,.42-10.22,1.38-19.45,2.95-28.22,8.04-44.92,27.77-69.85,42.9-82.85,16.42-14.11,31.16-17.63,31.31-17.67l.22,.97c-.14,.03-14.69,3.52-30.92,17.49-14.99,12.9-34.53,37.64-42.52,82.23-1.56,8.72-2.52,17.91-2.94,28.08-.78,19.14-5.52,65.55-32.51,82.92Z" fill="#002346"></path>
  <path d="M762.08,266.05c-36.39,0-66-29.61-66-66s29.61-66,66-66c3.89,0,7.79,.34,11.59,1.01l-.17,.98c-3.74-.66-7.58-1-11.41-1-35.84,0-65,29.16-65,65s29.16,65,65,65c4.02,0,8.05-.37,11.97-1.1l.18,.98c-3.98,.74-8.07,1.12-12.15,1.12Z" fill="#002346"></path>
  <path d="M622.37,148.17l-.41-.91c23.16-10.53,38.12-33.77,38.12-59.2,0-10.3-2.34-20.15-6.95-29.28l.89-.45c4.68,9.27,7.06,19.27,7.06,29.73,0,25.82-15.19,49.42-38.71,60.11Z" fill="#002346"></path>
  <path d="M733.58,214.05c-12.41,0-22.5-5.43-22.5-12.11s10.09-12.11,22.5-12.11,22.5,5.43,22.5,12.11-10.09,12.11-22.5,12.11Zm0-23.49c-11.86,0-21.5,5.1-21.5,11.38s9.64,11.38,21.5,11.38,21.5-5.1,21.5-11.38-9.64-11.38-21.5-11.38Z" fill="#002346"></path>
  <path d="M733.08,204.05c-4.96,0-9-2.69-9-6s4.04-6,9-6,9,2.69,9,6-4.04,6-9,6Zm0-11c-4.41,0-8,2.24-8,5s3.59,5,8,5,8-2.24,8-5-3.59-5-8-5Z" fill="#002346"></path>
  <path d="M740.58,120.05c-12.41,0-22.5-7.4-22.5-16.5s10.09-16.5,22.5-16.5,22.5,7.4,22.5,16.5-10.09,16.5-22.5,16.5Zm0-32c-11.86,0-21.5,6.95-21.5,15.5s9.64,15.5,21.5,15.5,21.5-6.95,21.5-15.5-9.64-15.5-21.5-15.5Z" fill="#002346"></path>
  <path d="M740.08,110.05c-4.96,0-9-2.69-9-6s4.04-6,9-6,9,2.69,9,6-4.04,6-9,6Zm0-11c-4.41,0-8,2.24-8,5s3.59,5,8,5,8-2.24,8-5-3.59-5-8-5Z" fill="#002346"></path>
  <path d="M645.58,226.05c-9.1,0-16.5-10.09-16.5-22.5s7.4-22.5,16.5-22.5,16.5,10.09,16.5,22.5-7.4,22.5-16.5,22.5Zm0-44c-8.55,0-15.5,9.65-15.5,21.5s6.95,21.5,15.5,21.5,15.5-9.65,15.5-21.5-6.95-21.5-15.5-21.5Z" fill="#002346"></path>
  <path d="M646.08,213.05c-3.31,0-6-4.04-6-9s2.69-9,6-9,6,4.04,6,9-2.69,9-6,9Zm0-17c-2.76,0-5,3.59-5,8s2.24,8,5,8,5-3.59,5-8-2.24-8-5-8Z" fill="#002346"></path>
</svg>
