<?xml version="1.0" standalone="no"?>
<!DOCTYPE svg PUBLIC "-//W3C//DTD SVG 20010904//EN"
 "http://www.w3.org/TR/2001/REC-SVG-20010904/DTD/svg10.dtd">
<svg version="1.0" xmlns="http://www.w3.org/2000/svg"
 width="2000.000000pt" height="272.000000pt" viewBox="0 0 2000.000000 272.000000"
 preserveAspectRatio="xMidYMid meet">

<g transform="translate(0.000000,272.000000) scale(0.100000,-0.100000)"
fill="#4758b8" stroke="none">
<path d="M19172 2688 c-15 -15 -16 -72 -1 -101 6 -12 24 -33 39 -47 21 -19 57
-95 138 -298 l111 -273 -25 -11 c-20 -9 -27 -9 -34 1 -6 11 -28 1 -91 -42 -46
-30 -131 -79 -188 -107 -114 -57 -117 -57 -231 -25 -30 8 -76 15 -101 15 -41
0 -48 3 -52 23 -2 12 -5 -40 -6 -116 -1 -149 -11 -192 -52 -221 -33 -23 -90
-21 -118 5 -37 35 -44 68 -44 194 l1 121 -77 -8 c-42 -4 -98 -14 -126 -22 -65
-20 -275 -21 -410 -1 -128 18 -124 19 -118 -5 6 -24 3 -25 -42 -3 -33 16 -35
20 -35 65 l0 48 43 0 c40 0 47 5 125 83 l82 82 0 110 0 110 -78 78 -77 77
-115 0 -115 0 -78 -78 -77 -77 0 -115 0 -115 78 -78 c75 -74 79 -77 125 -77
l47 0 0 -48 c0 -36 -5 -54 -20 -67 -11 -10 -20 -30 -20 -45 0 -15 9 -39 20
-53 14 -18 20 -40 20 -76 0 -44 3 -51 20 -51 17 0 20 7 20 46 0 38 3 45 16 40
9 -3 20 -6 26 -6 7 0 9 -33 6 -95 l-4 -95 66 -26 c47 -20 89 -28 151 -32 141
-7 244 33 354 140 33 32 65 56 72 54 21 -8 16 -94 -17 -301 -44 -277 -114
-612 -164 -789 -43 -146 -106 -316 -128 -343 -8 -10 12 -13 95 -13 l105 0 12
-35 c13 -41 59 -70 93 -59 34 10 67 45 67 71 l0 23 158 0 158 0 13 -35 c12
-35 53 -65 86 -65 23 0 75 55 75 79 0 20 5 21 105 21 58 0 105 2 105 5 0 3
-11 27 -24 53 -90 177 -206 656 -281 1162 -26 174 -26 230 1 230 7 0 35 -13
61 -29 27 -16 84 -42 128 -57 102 -34 255 -39 350 -10 88 26 155 57 155 70 0
7 -22 68 -50 136 -27 68 -50 125 -50 127 0 1 14 10 30 18 28 15 31 14 38 -3 4
-10 95 -236 202 -500 172 -426 220 -527 220 -467 0 8 -90 238 -201 511 -144
356 -198 499 -190 507 6 6 11 23 11 38 0 26 -14 44 -52 64 -14 7 -55 95 -130
280 -90 221 -110 279 -109 318 2 85 -57 155 -97 115z m43 -38 c-5 -8 -11 -8
-17 -2 -6 6 -7 16 -3 22 5 8 11 8 17 2 6 -6 7 -16 3 -22z"/>
<path d="M18830 2638 c-19 -17 -80 -63 -134 -104 -102 -75 -146 -126 -196
-225 -26 -51 -40 -63 -141 -129 -61 -40 -141 -83 -178 -96 l-66 -23 106 0 c58
-1 133 -4 167 -7 59 -7 60 -7 67 -41 12 -67 22 -78 71 -81 25 -2 52 2 60 9 9
7 26 9 46 4 18 -4 52 -8 76 -8 30 -1 42 -6 42 -17 1 -28 39 65 40 96 l0 31
113 6 c61 4 144 7 182 7 l70 0 -96 33 c-54 19 -115 48 -141 68 -25 19 -65 45
-90 58 -44 24 -44 24 -57 100 -28 165 -29 152 27 210 74 76 101 169 32 109z"/>
<path d="M1530 1375 l0 -955 105 0 105 0 0 55 c0 30 3 55 6 55 3 0 20 -11 38
-25 53 -41 177 -93 251 -106 404 -70 749 328 697 804 -20 181 -80 314 -193
426 -206 203 -532 216 -736 28 l-43 -40 0 357 0 356 -115 0 -115 0 0 -955z
m718 190 c153 -70 243 -216 258 -419 18 -235 -79 -432 -256 -519 -62 -31 -70
-32 -180 -32 -125 1 -194 18 -272 70 l-38 25 0 369 0 368 53 51 c59 55 136 99
201 112 66 14 174 3 234 -25z"/>
<path d="M6170 1375 l0 -955 115 0 115 0 0 348 0 347 257 -265 c142 -146 299
-308 350 -360 l92 -95 76 75 75 75 -317 318 -318 318 37 32 c20 18 138 122
262 232 l225 199 -62 66 c-34 36 -64 66 -67 67 -3 2 -140 -119 -305 -269
l-300 -272 -3 547 -2 547 -115 0 -115 0 0 -955z"/>
<path d="M16570 1980 c0 -192 -2 -350 -5 -350 -3 0 -29 18 -57 41 -173 136
-374 157 -571 58 -95 -49 -213 -172 -266 -279 -61 -125 -81 -217 -81 -369 0
-156 23 -260 82 -375 79 -151 223 -264 384 -302 89 -21 227 -14 304 15 63 24
179 108 210 152 12 16 25 29 29 29 4 0 13 -16 20 -36 30 -82 113 -139 220
-150 l58 -7 22 80 c11 44 21 82 21 85 0 3 -19 10 -43 16 -50 13 -84 45 -97 93
-6 21 -10 346 -10 841 l0 808 -110 0 -110 0 0 -350z m-245 -396 c73 -19 135
-54 197 -112 l48 -45 0 -337 0 -338 -52 -48 c-29 -26 -82 -61 -118 -78 -59
-28 -74 -31 -165 -31 -93 0 -105 2 -167 33 -113 55 -204 177 -237 317 -7 27
-12 95 -12 150 1 160 41 278 128 375 54 60 108 94 183 114 72 19 123 19 195 0z"/>
<path d="M11226 2310 c-61 -19 -98 -77 -98 -152 0 -93 79 -165 174 -156 27 3
62 14 76 25 57 41 80 140 47 203 -34 65 -127 103 -199 80z"/>
<path d="M18491 1904 c0 -11 3 -14 6 -6 3 7 2 16 -1 19 -3 4 -6 -2 -5 -13z"/>
<path d="M18741 1874 c0 -11 3 -14 6 -6 3 7 2 16 -1 19 -3 4 -6 -2 -5 -13z"/>
<path d="M18502 1850 c0 -14 2 -19 5 -12 2 6 2 18 0 25 -3 6 -5 1 -5 -13z"/>
<path d="M515 1780 c-250 -52 -429 -262 -476 -561 -15 -97 -5 -272 20 -372 61
-237 221 -394 451 -443 96 -21 299 -13 415 15 87 21 195 59 195 68 0 14 -44
169 -50 176 -3 4 -36 -4 -72 -17 -171 -65 -379 -74 -492 -23 -131 60 -213 174
-242 340 l-6 37 471 0 471 0 6 26 c11 44 -3 285 -20 349 -42 152 -156 300
-276 358 -102 50 -279 70 -395 47z m271 -211 c122 -46 201 -164 212 -316 l5
-73 -372 0 -371 0 0 23 c0 35 28 136 54 192 43 95 123 163 225 192 61 17 174
9 247 -18z"/>
<path d="M3501 1780 c-144 -30 -281 -107 -366 -203 -64 -72 -131 -212 -151
-316 -20 -102 -15 -293 11 -386 48 -178 177 -336 335 -414 331 -161 725 -39
887 274 65 126 77 185 77 365 0 140 -3 163 -27 235 -69 208 -211 352 -412 421
-65 21 -102 27 -195 30 -63 2 -135 -1 -159 -6z m249 -206 c151 -45 277 -195
311 -372 16 -85 6 -240 -20 -316 -72 -204 -221 -306 -430 -294 -187 11 -342
153 -396 363 -18 69 -20 212 -4 287 24 113 104 239 185 289 91 56 246 75 354
43z"/>
<path d="M5035 1776 c-202 -47 -356 -164 -442 -337 -55 -112 -68 -176 -68
-349 0 -144 2 -161 29 -244 90 -274 337 -455 623 -456 307 -1 551 179 643 475
14 47 23 108 27 185 11 234 -53 416 -197 558 -117 116 -258 173 -440 178 -75
2 -136 -1 -175 -10z m265 -202 c145 -43 262 -178 306 -354 22 -87 14 -250 -15
-334 -72 -204 -221 -306 -430 -294 -185 11 -341 152 -396 358 -18 66 -19 218
-4 292 24 111 86 214 166 275 86 66 256 92 373 57z"/>
<path d="M13436 1774 c-196 -47 -371 -217 -440 -425 -56 -169 -57 -376 -2
-538 70 -206 234 -360 432 -407 91 -21 228 -15 305 15 66 25 176 105 215 157
l28 36 23 -49 c43 -91 141 -153 243 -153 l36 0 18 73 c10 39 21 77 23 84 3 6
-10 14 -29 18 -18 4 -46 14 -61 22 -57 29 -57 33 -57 618 l0 535 -100 0 -100
0 0 -48 c0 -27 -3 -51 -6 -55 -3 -3 -27 10 -54 29 -131 94 -311 128 -474 88z
m327 -199 c29 -9 79 -30 112 -48 l60 -32 3 -371 2 -372 -52 -47 c-29 -27 -82
-62 -118 -79 -59 -28 -74 -31 -165 -31 -91 0 -106 3 -165 31 -109 51 -184 141
-231 274 -30 87 -33 274 -5 365 53 175 169 294 316 325 58 12 177 4 243 -15z"/>
<path d="M15187 1780 c-112 -28 -217 -117 -285 -240 l-42 -75 0 148 0 147
-110 0 -110 0 0 -670 0 -670 115 0 115 0 0 368 c0 276 4 383 14 433 29 136
116 257 221 309 44 22 63 25 157 25 l106 0 32 108 c18 60 29 111 25 115 -10
10 -197 12 -238 2z"/>
<path d="M9012 1736 c-51 -18 -94 -35 -97 -37 -2 -3 91 -292 207 -642 l212
-638 125 3 125 3 155 498 c86 273 158 497 161 497 3 0 74 -225 159 -500 l155
-500 125 0 126 0 211 639 211 640 -26 10 c-91 36 -165 61 -169 57 -2 -3 -81
-247 -174 -543 -93 -295 -171 -539 -173 -542 -6 -5 1 -29 -163 499 l-148 475
-125 3 -124 3 -154 -483 c-85 -266 -157 -487 -161 -492 -5 -4 -19 27 -32 70
-113 366 -322 1014 -327 1013 -3 0 -48 -15 -99 -33z"/>
<path d="M11170 1090 l0 -670 115 0 115 0 0 670 0 670 -115 0 -115 0 0 -670z"/>
<path d="M11720 1665 l0 -95 360 0 c211 0 360 -4 360 -9 0 -5 -166 -225 -370
-488 l-370 -478 0 -87 0 -88 520 0 520 0 0 100 0 100 -380 2 -379 3 369 479
370 480 0 88 0 88 -500 0 -500 0 0 -95z"/>
<path d="M7630 1305 l0 -105 435 0 435 0 0 105 0 105 -435 0 -435 0 0 -105z"/>
</g>
</svg>
